# MagicaVoxel @ Ephtracy

# material
mtllib bushlet0Berries.mtl
usemtl palette

# normals
vn -1 0 0
vn 1 0 0
vn 0 0 1
vn 0 0 -1
vn 0 -1 0
vn 0 1 0

# texcoords
vt 0.939453 0.5
vt 0.974609 0.5

# verts
v -9.5 3 8.5
v -9.5 3 5.5
v -9.5 4 8.5
v -9.5 4 7.5
v -9.5 4 6.5
v -9.5 4 5.5
v -9.5 5 7.5
v -9.5 5 6.5
v -9.5 5 5.5
v -8.5 4 8.5
v -8.5 4 7.5
v -8.5 5 8.5
v -8.5 5 7.5
v -8.5 6 8.5
v -8.5 6 7.5
v -7.5 3 9.5
v -7.5 3 8.5
v -7.5 4 9.5
v -7.5 4 8.5
v -5.5 4 -0.5
v -5.5 4 -1.5
v -5.5 5 -0.5
v -5.5 5 -1.5
v -4.5 3 -0.5
v -4.5 3 -2.5
v -4.5 4 0.5
v -4.5 4 -0.5
v -4.5 4 -1.5
v -4.5 5 0.5
v -4.5 5 -0.5
v -4.5 5 -1.5
v -4.5 5 -2.5
v -4.5 6 -0.5
v -4.5 6 -1.5
v -3.5 3 0.5
v -3.5 3 -0.5
v -3.5 3 -2.5
v -3.5 3 -3.5
v -3.5 4 0.5
v -3.5 4 -0.5
v -3.5 4 -2.5
v -3.5 4 -3.5
v -3.5 5 0.5
v -3.5 5 -0.5
v -3.5 5 -1.5
v -3.5 5 -2.5
v -3.5 6 0.5
v -3.5 6 -0.5
v -3.5 6 -1.5
v -3.5 6 -2.5
v -3.5 7 -1.5
v -3.5 7 -2.5
v 3.5 4 5.5
v 3.5 4 4.5
v 3.5 5 5.5
v 3.5 5 4.5
v 4.5 3 5.5
v 4.5 3 4.5
v 4.5 4 6.5
v 4.5 4 5.5
v 4.5 4 4.5
v 4.5 4 3.5
v 4.5 5 6.5
v 4.5 5 5.5
v 4.5 5 4.5
v 4.5 5 3.5
v 4.5 6 6.5
v 4.5 6 5.5
v 4.5 6 4.5
v 5.5 3 6.5
v 5.5 3 5.5
v 5.5 3 4.5
v 5.5 3 3.5
v 5.5 3 -6.5
v 5.5 3 -8.5
v 5.5 4 6.5
v 5.5 4 5.5
v 5.5 4 4.5
v 5.5 4 3.5
v 5.5 4 2.5
v 5.5 4 -5.5
v 5.5 4 -6.5
v 5.5 5 4.5
v 5.5 5 3.5
v 5.5 5 2.5
v 5.5 5 -5.5
v 5.5 5 -6.5
v 5.5 5 -7.5
v 5.5 5 -8.5
v 5.5 6 4.5
v 5.5 6 3.5
v 5.5 6 -5.5
v 5.5 6 -6.5
v 5.5 6 -7.5
v 5.5 6 -8.5
v 6.5 3 -5.5
v 6.5 3 -6.5
v 6.5 3 -8.5
v 6.5 3 -9.5
v 6.5 4 -5.5
v 6.5 4 -6.5
v 6.5 4 -8.5
v 6.5 4 -9.5
v -7.5 4 8.5
v -7.5 4 7.5
v -7.5 4 6.5
v -7.5 4 5.5
v -7.5 5 8.5
v -7.5 5 7.5
v -7.5 5 6.5
v -7.5 5 5.5
v -7.5 6 8.5
v -7.5 6 7.5
v -6.5 3 9.5
v -6.5 3 8.5
v -6.5 3 6.5
v -6.5 3 5.5
v -6.5 4 9.5
v -6.5 4 8.5
v -6.5 4 7.5
v -6.5 4 6.5
v -6.5 4 5.5
v -6.5 5 7.5
v -6.5 5 6.5
v -5.5 3 8.5
v -5.5 3 7.5
v -5.5 3 6.5
v -5.5 4 8.5
v -5.5 4 7.5
v -5.5 4 6.5
v -2.5 3 0.5
v -2.5 3 -0.5
v -2.5 3 -2.5
v -2.5 3 -3.5
v -2.5 4 0.5
v -2.5 4 -0.5
v -2.5 4 -2.5
v -2.5 4 -3.5
v -2.5 5 0.5
v -2.5 5 -0.5
v -2.5 5 -1.5
v -2.5 5 -2.5
v -2.5 6 0.5
v -2.5 6 -0.5
v -2.5 6 -1.5
v -2.5 6 -2.5
v -2.5 7 -1.5
v -2.5 7 -2.5
v -1.5 3 -0.5
v -1.5 3 -2.5
v -1.5 4 0.5
v -1.5 4 -0.5
v -1.5 4 -1.5
v -1.5 5 0.5
v -1.5 5 -0.5
v -1.5 5 -1.5
v -1.5 5 -2.5
v -1.5 6 -0.5
v -1.5 6 -1.5
v -0.5 4 -0.5
v -0.5 4 -1.5
v -0.5 5 -0.5
v -0.5 5 -1.5
v 6.5 3 6.5
v 6.5 3 5.5
v 6.5 3 4.5
v 6.5 3 3.5
v 6.5 4 6.5
v 6.5 4 5.5
v 6.5 4 4.5
v 6.5 4 3.5
v 6.5 4 2.5
v 6.5 5 4.5
v 6.5 5 3.5
v 6.5 5 2.5
v 6.5 6 4.5
v 6.5 6 3.5
v 7.5 3 5.5
v 7.5 3 4.5
v 7.5 3 -5.5
v 7.5 3 -6.5
v 7.5 3 -8.5
v 7.5 3 -9.5
v 7.5 4 6.5
v 7.5 4 5.5
v 7.5 4 4.5
v 7.5 4 3.5
v 7.5 4 -5.5
v 7.5 4 -6.5
v 7.5 4 -8.5
v 7.5 4 -9.5
v 7.5 5 6.5
v 7.5 5 5.5
v 7.5 5 4.5
v 7.5 5 3.5
v 7.5 5 -5.5
v 7.5 5 -6.5
v 7.5 5 -7.5
v 7.5 5 -8.5
v 7.5 6 6.5
v 7.5 6 5.5
v 7.5 6 4.5
v 7.5 6 -5.5
v 7.5 6 -6.5
v 7.5 6 -7.5
v 7.5 6 -8.5
v 8.5 3 -6.5
v 8.5 3 -8.5
v 8.5 4 -5.5
v 8.5 4 -6.5
v 8.5 5 -5.5
v 8.5 5 -6.5
v 8.5 5 -7.5
v 8.5 5 -8.5
v 8.5 6 -6.5
v 8.5 6 -7.5
v -7.5 3 9.5
v -7.5 4 9.5
v -6.5 3 9.5
v -6.5 4 9.5
v -9.5 3 8.5
v -9.5 4 8.5
v -8.5 4 8.5
v -8.5 5 8.5
v -8.5 6 8.5
v -7.5 3 8.5
v -7.5 4 8.5
v -7.5 5 8.5
v -7.5 6 8.5
v -6.5 3 8.5
v -6.5 4 8.5
v -5.5 3 8.5
v -5.5 4 8.5
v -9.5 4 7.5
v -9.5 5 7.5
v -8.5 4 7.5
v -8.5 5 7.5
v -7.5 4 7.5
v -7.5 5 7.5
v -6.5 4 7.5
v -6.5 5 7.5
v 4.5 4 6.5
v 4.5 5 6.5
v 4.5 6 6.5
v 5.5 3 6.5
v 5.5 4 6.5
v 5.5 5 6.5
v 5.5 6 6.5
v 6.5 3 6.5
v 6.5 4 6.5
v 6.5 5 6.5
v 6.5 6 6.5
v 7.5 4 6.5
v 7.5 5 6.5
v 7.5 6 6.5
v 3.5 4 5.5
v 3.5 5 5.5
v 4.5 3 5.5
v 4.5 4 5.5
v 4.5 5 5.5
v 5.5 3 5.5
v 5.5 4 5.5
v 6.5 3 5.5
v 6.5 4 5.5
v 7.5 3 5.5
v 7.5 4 5.5
v -4.5 4 0.5
v -4.5 5 0.5
v -3.5 3 0.5
v -3.5 4 0.5
v -3.5 5 0.5
v -3.5 6 0.5
v -2.5 3 0.5
v -2.5 4 0.5
v -2.5 5 0.5
v -2.5 6 0.5
v -1.5 4 0.5
v -1.5 5 0.5
v -5.5 4 -0.5
v -5.5 5 -0.5
v -4.5 3 -0.5
v -4.5 4 -0.5
v -4.5 5 -0.5
v -4.5 6 -0.5
v -3.5 3 -0.5
v -3.5 4 -0.5
v -3.5 5 -0.5
v -3.5 6 -0.5
v -2.5 3 -0.5
v -2.5 4 -0.5
v -2.5 5 -0.5
v -2.5 6 -0.5
v -1.5 3 -0.5
v -1.5 4 -0.5
v -1.5 5 -0.5
v -1.5 6 -0.5
v -0.5 4 -0.5
v -0.5 5 -0.5
v -3.5 6 -1.5
v -3.5 7 -1.5
v -2.5 6 -1.5
v -2.5 7 -1.5
v 5.5 4 -5.5
v 5.5 5 -5.5
v 5.5 6 -5.5
v 6.5 3 -5.5
v 6.5 4 -5.5
v 6.5 5 -5.5
v 6.5 6 -5.5
v 7.5 3 -5.5
v 7.5 4 -5.5
v 7.5 5 -5.5
v 7.5 6 -5.5
v 8.5 4 -5.5
v 8.5 5 -5.5
v 5.5 3 -6.5
v 5.5 4 -6.5
v 6.5 3 -6.5
v 6.5 4 -6.5
v 7.5 3 -6.5
v 7.5 4 -6.5
v 7.5 5 -6.5
v 7.5 6 -6.5
v 8.5 3 -6.5
v 8.5 4 -6.5
v 8.5 5 -6.5
v 8.5 6 -6.5
v -8.5 5 7.5
v -8.5 6 7.5
v -7.5 5 7.5
v -7.5 6 7.5
v -7.5 4 6.5
v -7.5 5 6.5
v -6.5 3 6.5
v -6.5 4 6.5
v -6.5 5 6.5
v -5.5 3 6.5
v -5.5 4 6.5
v -9.5 3 5.5
v -9.5 4 5.5
v -9.5 5 5.5
v -8.5 4 5.5
v -8.5 5 5.5
v -7.5 4 5.5
v -7.5 5 5.5
v -6.5 3 5.5
v -6.5 4 5.5
v 3.5 4 4.5
v 3.5 5 4.5
v 4.5 3 4.5
v 4.5 4 4.5
v 4.5 5 4.5
v 4.5 6 4.5
v 5.5 3 4.5
v 5.5 4 4.5
v 5.5 5 4.5
v 5.5 6 4.5
v 6.5 3 4.5
v 6.5 4 4.5
v 6.5 5 4.5
v 6.5 6 4.5
v 7.5 3 4.5
v 7.5 4 4.5
v 7.5 5 4.5
v 7.5 6 4.5
v 4.5 4 3.5
v 4.5 5 3.5
v 5.5 3 3.5
v 5.5 4 3.5
v 5.5 5 3.5
v 5.5 6 3.5
v 6.5 3 3.5
v 6.5 4 3.5
v 6.5 5 3.5
v 6.5 6 3.5
v 7.5 4 3.5
v 7.5 5 3.5
v 5.5 4 2.5
v 5.5 5 2.5
v 6.5 4 2.5
v 6.5 5 2.5
v -5.5 4 -1.5
v -5.5 5 -1.5
v -4.5 4 -1.5
v -4.5 5 -1.5
v -4.5 6 -1.5
v -3.5 5 -1.5
v -3.5 6 -1.5
v -2.5 5 -1.5
v -2.5 6 -1.5
v -1.5 4 -1.5
v -1.5 5 -1.5
v -1.5 6 -1.5
v -0.5 4 -1.5
v -0.5 5 -1.5
v -4.5 3 -2.5
v -4.5 5 -2.5
v -3.5 3 -2.5
v -3.5 4 -2.5
v -3.5 5 -2.5
v -3.5 6 -2.5
v -3.5 7 -2.5
v -2.5 3 -2.5
v -2.5 4 -2.5
v -2.5 5 -2.5
v -2.5 6 -2.5
v -2.5 7 -2.5
v -1.5 3 -2.5
v -1.5 5 -2.5
v -3.5 3 -3.5
v -3.5 4 -3.5
v -2.5 3 -3.5
v -2.5 4 -3.5
v 7.5 5 -7.5
v 7.5 6 -7.5
v 8.5 5 -7.5
v 8.5 6 -7.5
v 5.5 3 -8.5
v 5.5 5 -8.5
v 5.5 6 -8.5
v 6.5 3 -8.5
v 6.5 4 -8.5
v 6.5 5 -8.5
v 6.5 6 -8.5
v 7.5 3 -8.5
v 7.5 4 -8.5
v 7.5 5 -8.5
v 7.5 6 -8.5
v 8.5 3 -8.5
v 8.5 5 -8.5
v 6.5 3 -9.5
v 6.5 4 -9.5
v 7.5 3 -9.5
v 7.5 4 -9.5
v -7.5 3 9.5
v -6.5 3 9.5
v -9.5 3 8.5
v -7.5 3 8.5
v -6.5 3 8.5
v -5.5 3 8.5
v -6.5 3 7.5
v -5.5 3 7.5
v -6.5 3 6.5
v -5.5 3 6.5
v 5.5 3 6.5
v 6.5 3 6.5
v -9.5 3 5.5
v -6.5 3 5.5
v 4.5 3 5.5
v 5.5 3 5.5
v 6.5 3 5.5
v 7.5 3 5.5
v 4.5 3 4.5
v 5.5 3 4.5
v 6.5 3 4.5
v 7.5 3 4.5
v 5.5 3 3.5
v 6.5 3 3.5
v -3.5 3 0.5
v -2.5 3 0.5
v -4.5 3 -0.5
v -3.5 3 -0.5
v -2.5 3 -0.5
v -1.5 3 -0.5
v -4.5 3 -2.5
v -3.5 3 -2.5
v -2.5 3 -2.5
v -1.5 3 -2.5
v -3.5 3 -3.5
v -2.5 3 -3.5
v 6.5 3 -5.5
v 7.5 3 -5.5
v 5.5 3 -6.5
v 6.5 3 -6.5
v 7.5 3 -6.5
v 8.5 3 -6.5
v 5.5 3 -8.5
v 6.5 3 -8.5
v 7.5 3 -8.5
v 8.5 3 -8.5
v 6.5 3 -9.5
v 7.5 3 -9.5
v 4.5 4 6.5
v 5.5 4 6.5
v 6.5 4 6.5
v 7.5 4 6.5
v 3.5 4 5.5
v 4.5 4 5.5
v 5.5 4 5.5
v 6.5 4 5.5
v 7.5 4 5.5
v 3.5 4 4.5
v 4.5 4 4.5
v 5.5 4 4.5
v 6.5 4 4.5
v 7.5 4 4.5
v 4.5 4 3.5
v 5.5 4 3.5
v 6.5 4 3.5
v 7.5 4 3.5
v 5.5 4 2.5
v 6.5 4 2.5
v -4.5 4 0.5
v -3.5 4 0.5
v -2.5 4 0.5
v -1.5 4 0.5
v -5.5 4 -0.5
v -4.5 4 -0.5
v -3.5 4 -0.5
v -2.5 4 -0.5
v -1.5 4 -0.5
v -0.5 4 -0.5
v -5.5 4 -1.5
v -4.5 4 -1.5
v -1.5 4 -1.5
v -0.5 4 -1.5
v 5.5 4 -5.5
v 6.5 4 -5.5
v 7.5 4 -5.5
v 8.5 4 -5.5
v 5.5 4 -6.5
v 6.5 4 -6.5
v 7.5 4 -6.5
v 8.5 4 -6.5
v -7.5 4 9.5
v -6.5 4 9.5
v -9.5 4 8.5
v -8.5 4 8.5
v -7.5 4 8.5
v -6.5 4 8.5
v -5.5 4 8.5
v -9.5 4 7.5
v -8.5 4 7.5
v -7.5 4 7.5
v -6.5 4 7.5
v -5.5 4 7.5
v -7.5 4 6.5
v -6.5 4 6.5
v -5.5 4 6.5
v -7.5 4 5.5
v -6.5 4 5.5
v -3.5 4 -2.5
v -2.5 4 -2.5
v -3.5 4 -3.5
v -2.5 4 -3.5
v 6.5 4 -8.5
v 7.5 4 -8.5
v 6.5 4 -9.5
v 7.5 4 -9.5
v -9.5 5 7.5
v -8.5 5 7.5
v -7.5 5 7.5
v -6.5 5 7.5
v -9.5 5 6.5
v -8.5 5 6.5
v -7.5 5 6.5
v -6.5 5 6.5
v -9.5 5 5.5
v -8.5 5 5.5
v -7.5 5 5.5
v 3.5 5 5.5
v 4.5 5 5.5
v 3.5 5 4.5
v 4.5 5 4.5
v 5.5 5 4.5
v 6.5 5 4.5
v 7.5 5 4.5
v 4.5 5 3.5
v 5.5 5 3.5
v 6.5 5 3.5
v 7.5 5 3.5
v 5.5 5 2.5
v 6.5 5 2.5
v -4.5 5 0.5
v -3.5 5 0.5
v -2.5 5 0.5
v -1.5 5 0.5
v -5.5 5 -0.5
v -4.5 5 -0.5
v -3.5 5 -0.5
v -2.5 5 -0.5
v -1.5 5 -0.5
v -0.5 5 -0.5
v -5.5 5 -1.5
v -4.5 5 -1.5
v -3.5 5 -1.5
v -2.5 5 -1.5
v -1.5 5 -1.5
v -0.5 5 -1.5
v -4.5 5 -2.5
v -3.5 5 -2.5
v -2.5 5 -2.5
v -1.5 5 -2.5
v 7.5 5 -5.5
v 8.5 5 -5.5
v 7.5 5 -6.5
v 8.5 5 -6.5
v 7.5 5 -7.5
v 8.5 5 -7.5
v 7.5 5 -8.5
v 8.5 5 -8.5
v -8.5 6 8.5
v -7.5 6 8.5
v -8.5 6 7.5
v -7.5 6 7.5
v 4.5 6 6.5
v 5.5 6 6.5
v 6.5 6 6.5
v 7.5 6 6.5
v 4.5 6 5.5
v 5.5 6 5.5
v 6.5 6 5.5
v 7.5 6 5.5
v 4.5 6 4.5
v 5.5 6 4.5
v 6.5 6 4.5
v 7.5 6 4.5
v 5.5 6 3.5
v 6.5 6 3.5
v -3.5 6 0.5
v -2.5 6 0.5
v -4.5 6 -0.5
v -3.5 6 -0.5
v -2.5 6 -0.5
v -1.5 6 -0.5
v -4.5 6 -1.5
v -3.5 6 -1.5
v -2.5 6 -1.5
v -1.5 6 -1.5
v 5.5 6 -5.5
v 6.5 6 -5.5
v 7.5 6 -5.5
v 5.5 6 -6.5
v 6.5 6 -6.5
v 7.5 6 -6.5
v 8.5 6 -6.5
v 5.5 6 -7.5
v 6.5 6 -7.5
v 7.5 6 -7.5
v 8.5 6 -7.5
v 5.5 6 -8.5
v 6.5 6 -8.5
v 7.5 6 -8.5
v -3.5 7 -1.5
v -2.5 7 -1.5
v -3.5 7 -2.5
v -2.5 7 -2.5

# faces
f 3/2/1 2/2/1 1/2/1
f 4/2/1 2/2/1 3/2/1
f 5/2/1 2/2/1 4/2/1
f 6/2/1 2/2/1 5/2/1
f 7/2/1 5/2/1 4/2/1
f 8/1/1 6/1/1 5/1/1
f 8/2/1 5/2/1 7/2/1
f 9/1/1 6/1/1 8/1/1
f 12/2/1 11/2/1 10/2/1
f 13/2/1 11/2/1 12/2/1
f 14/1/1 13/1/1 12/1/1
f 15/1/1 13/1/1 14/1/1
f 18/2/1 17/2/1 16/2/1
f 19/2/1 17/2/1 18/2/1
f 22/1/1 21/1/1 20/1/1
f 23/1/1 21/1/1 22/1/1
f 27/2/1 25/2/1 24/2/1
f 28/2/1 25/2/1 27/2/1
f 29/2/1 27/2/1 26/2/1
f 30/2/1 27/2/1 29/2/1
f 31/2/1 25/2/1 28/2/1
f 32/2/1 25/2/1 31/2/1
f 33/2/1 31/2/1 30/2/1
f 34/2/1 31/2/1 33/2/1
f 39/2/1 36/2/1 35/2/1
f 40/2/1 36/2/1 39/2/1
f 41/2/1 38/2/1 37/2/1
f 42/2/1 38/2/1 41/2/1
f 47/2/1 44/2/1 43/2/1
f 48/2/1 44/2/1 47/2/1
f 49/2/1 46/2/1 45/2/1
f 50/2/1 46/2/1 49/2/1
f 51/1/1 50/1/1 49/1/1
f 52/1/1 50/1/1 51/1/1
f 55/1/1 54/1/1 53/1/1
f 56/1/1 54/1/1 55/1/1
f 60/2/1 58/2/1 57/2/1
f 61/2/1 58/2/1 60/2/1
f 63/2/1 60/2/1 59/2/1
f 64/2/1 60/2/1 63/2/1
f 65/2/1 62/2/1 61/2/1
f 66/2/1 62/2/1 65/2/1
f 67/1/1 64/1/1 63/1/1
f 68/2/1 65/2/1 64/2/1
f 68/1/1 64/1/1 67/1/1
f 69/2/1 65/2/1 68/2/1
f 76/2/1 71/2/1 70/2/1
f 77/2/1 71/2/1 76/2/1
f 78/2/1 73/2/1 72/2/1
f 79/2/1 73/2/1 78/2/1
f 82/2/1 75/2/1 74/2/1
f 84/1/1 80/1/1 79/1/1
f 85/1/1 80/1/1 84/1/1
f 86/2/1 82/2/1 81/2/1
f 87/2/1 75/2/1 82/2/1
f 87/2/1 82/2/1 86/2/1
f 88/2/1 75/2/1 87/2/1
f 89/2/1 75/2/1 88/2/1
f 90/2/1 84/2/1 83/2/1
f 91/2/1 84/2/1 90/2/1
f 92/1/1 87/1/1 86/1/1
f 93/2/1 88/2/1 87/2/1
f 93/1/1 87/1/1 92/1/1
f 94/1/1 89/1/1 88/1/1
f 94/2/1 88/2/1 93/2/1
f 95/1/1 89/1/1 94/1/1
f 100/2/1 97/2/1 96/2/1
f 101/2/1 97/2/1 100/2/1
f 102/2/1 99/2/1 98/2/1
f 103/2/1 99/2/1 102/2/1
f 104/2/2 105/2/2 108/2/2
f 108/2/2 105/2/2 109/2/2
f 106/2/2 107/2/2 110/2/2
f 110/2/2 107/2/2 111/2/2
f 108/1/2 109/1/2 112/1/2
f 112/1/2 109/1/2 113/1/2
f 114/2/2 115/2/2 118/2/2
f 118/2/2 115/2/2 119/2/2
f 116/2/2 117/2/2 121/2/2
f 121/2/2 117/2/2 122/2/2
f 120/2/2 121/2/2 123/2/2
f 123/2/2 121/2/2 124/2/2
f 125/2/2 126/2/2 128/2/2
f 126/1/2 127/1/2 129/1/2
f 128/2/2 126/2/2 129/2/2
f 129/1/2 127/1/2 130/1/2
f 131/2/2 132/2/2 135/2/2
f 135/2/2 132/2/2 136/2/2
f 133/2/2 134/2/2 137/2/2
f 137/2/2 134/2/2 138/2/2
f 139/2/2 140/2/2 143/2/2
f 143/2/2 140/2/2 144/2/2
f 141/2/2 142/2/2 145/2/2
f 145/2/2 142/2/2 146/2/2
f 145/1/2 146/1/2 147/1/2
f 147/1/2 146/1/2 148/1/2
f 149/2/2 150/2/2 152/2/2
f 152/2/2 150/2/2 153/2/2
f 151/2/2 152/2/2 154/2/2
f 154/2/2 152/2/2 155/2/2
f 153/2/2 150/2/2 156/2/2
f 156/2/2 150/2/2 157/2/2
f 155/2/2 156/2/2 158/2/2
f 158/2/2 156/2/2 159/2/2
f 160/1/2 161/1/2 162/1/2
f 162/1/2 161/1/2 163/1/2
f 164/2/2 165/2/2 168/2/2
f 168/2/2 165/2/2 169/2/2
f 166/2/2 167/2/2 170/2/2
f 170/2/2 167/2/2 171/2/2
f 171/1/2 172/1/2 174/1/2
f 174/1/2 172/1/2 175/1/2
f 173/2/2 174/2/2 176/2/2
f 176/2/2 174/2/2 177/2/2
f 178/2/2 179/2/2 185/2/2
f 185/2/2 179/2/2 186/2/2
f 180/2/2 181/2/2 188/2/2
f 188/2/2 181/2/2 189/2/2
f 182/2/2 183/2/2 190/2/2
f 190/2/2 183/2/2 191/2/2
f 186/2/2 187/2/2 192/2/2
f 184/2/2 185/2/2 192/2/2
f 185/2/2 186/2/2 192/2/2
f 192/2/2 187/2/2 193/2/2
f 193/2/2 187/2/2 194/2/2
f 194/2/2 187/2/2 195/2/2
f 192/1/2 193/1/2 200/1/2
f 193/2/2 194/2/2 201/2/2
f 200/1/2 193/1/2 201/1/2
f 201/2/2 194/2/2 202/2/2
f 196/2/2 197/2/2 203/2/2
f 203/2/2 197/2/2 204/2/2
f 198/2/2 199/2/2 205/2/2
f 205/2/2 199/2/2 206/2/2
f 207/2/2 208/2/2 210/2/2
f 209/2/2 210/2/2 211/2/2
f 210/2/2 208/2/2 212/2/2
f 211/2/2 210/2/2 212/2/2
f 212/2/2 208/2/2 213/2/2
f 213/2/2 208/2/2 214/2/2
f 212/2/2 213/2/2 215/2/2
f 215/2/2 213/2/2 216/2/2
f 219/2/3 218/2/3 217/2/3
f 220/2/3 218/2/3 219/2/3
f 223/2/3 222/2/3 221/2/3
f 226/2/3 223/2/3 221/2/3
f 226/2/3 224/2/3 223/2/3
f 227/2/3 224/2/3 226/2/3
f 228/1/3 225/1/3 224/1/3
f 228/2/3 224/2/3 227/2/3
f 229/1/3 225/1/3 228/1/3
f 232/2/3 231/2/3 230/2/3
f 233/2/3 231/2/3 232/2/3
f 236/2/3 235/2/3 234/2/3
f 237/2/3 235/2/3 236/2/3
f 240/2/3 239/2/3 238/2/3
f 241/2/3 239/2/3 240/2/3
f 246/2/3 243/2/3 242/2/3
f 247/1/3 244/1/3 243/1/3
f 247/2/3 243/2/3 246/2/3
f 248/1/3 244/1/3 247/1/3
f 249/2/3 246/2/3 245/2/3
f 249/2/3 247/2/3 246/2/3
f 249/2/3 248/2/3 247/2/3
f 250/2/3 248/2/3 249/2/3
f 251/2/3 248/2/3 250/2/3
f 252/2/3 248/2/3 251/2/3
f 253/2/3 251/2/3 250/2/3
f 254/1/3 252/1/3 251/1/3
f 254/2/3 251/2/3 253/2/3
f 255/1/3 252/1/3 254/1/3
f 259/1/3 257/1/3 256/1/3
f 260/1/3 257/1/3 259/1/3
f 261/2/3 259/2/3 258/2/3
f 262/2/3 259/2/3 261/2/3
f 265/2/3 264/2/3 263/2/3
f 266/2/3 264/2/3 265/2/3
f 270/2/3 268/2/3 267/2/3
f 271/2/3 268/2/3 270/2/3
f 273/2/3 270/2/3 269/2/3
f 273/2/3 272/2/3 271/2/3
f 273/2/3 271/2/3 270/2/3
f 274/2/3 272/2/3 273/2/3
f 275/2/3 272/2/3 274/2/3
f 276/2/3 272/2/3 275/2/3
f 277/2/3 275/2/3 274/2/3
f 278/2/3 275/2/3 277/2/3
f 282/1/3 280/1/3 279/1/3
f 283/1/3 280/1/3 282/1/3
f 285/2/3 282/2/3 281/2/3
f 286/2/3 282/2/3 285/2/3
f 287/2/3 284/2/3 283/2/3
f 288/2/3 284/2/3 287/2/3
f 293/2/3 290/2/3 289/2/3
f 294/2/3 290/2/3 293/2/3
f 295/2/3 292/2/3 291/2/3
f 296/2/3 292/2/3 295/2/3
f 297/1/3 295/1/3 294/1/3
f 298/1/3 295/1/3 297/1/3
f 301/1/3 300/1/3 299/1/3
f 302/1/3 300/1/3 301/1/3
f 307/2/3 304/2/3 303/2/3
f 308/1/3 305/1/3 304/1/3
f 308/2/3 304/2/3 307/2/3
f 309/1/3 305/1/3 308/1/3
f 310/2/3 307/2/3 306/2/3
f 310/2/3 308/2/3 307/2/3
f 310/2/3 309/2/3 308/2/3
f 311/2/3 309/2/3 310/2/3
f 312/2/3 309/2/3 311/2/3
f 313/2/3 309/2/3 312/2/3
f 314/2/3 312/2/3 311/2/3
f 315/2/3 312/2/3 314/2/3
f 318/2/3 317/2/3 316/2/3
f 319/2/3 317/2/3 318/2/3
f 324/2/3 321/2/3 320/2/3
f 325/2/3 321/2/3 324/2/3
f 326/2/3 323/2/3 322/2/3
f 327/2/3 323/2/3 326/2/3
f 328/1/4 329/1/4 330/1/4
f 330/1/4 329/1/4 331/1/4
f 332/2/4 333/2/4 335/2/4
f 335/2/4 333/2/4 336/2/4
f 334/1/4 335/1/4 337/1/4
f 337/1/4 335/1/4 338/1/4
f 339/2/4 340/2/4 342/2/4
f 340/1/4 341/1/4 342/1/4
f 342/1/4 341/1/4 343/1/4
f 339/2/4 342/2/4 344/2/4
f 342/2/4 343/2/4 344/2/4
f 344/2/4 343/2/4 345/2/4
f 339/2/4 344/2/4 346/2/4
f 346/2/4 344/2/4 347/2/4
f 348/1/4 349/1/4 351/1/4
f 351/1/4 349/1/4 352/1/4
f 350/2/4 351/2/4 354/2/4
f 354/2/4 351/2/4 355/2/4
f 352/2/4 353/2/4 356/2/4
f 356/2/4 353/2/4 357/2/4
f 358/2/4 359/2/4 362/2/4
f 362/2/4 359/2/4 363/2/4
f 360/2/4 361/2/4 364/2/4
f 364/2/4 361/2/4 365/2/4
f 366/2/4 367/2/4 369/2/4
f 369/2/4 367/2/4 370/2/4
f 368/2/4 369/2/4 372/2/4
f 372/2/4 369/2/4 373/2/4
f 370/2/4 371/2/4 374/2/4
f 374/2/4 371/2/4 375/2/4
f 373/2/4 374/2/4 376/2/4
f 376/2/4 374/2/4 377/2/4
f 378/1/4 379/1/4 380/1/4
f 380/1/4 379/1/4 381/1/4
f 382/1/4 383/1/4 384/1/4
f 384/1/4 383/1/4 385/1/4
f 385/2/4 386/2/4 387/2/4
f 387/2/4 386/2/4 388/2/4
f 389/2/4 390/2/4 392/2/4
f 392/2/4 390/2/4 393/2/4
f 391/1/4 392/1/4 394/1/4
f 394/1/4 392/1/4 395/1/4
f 396/2/4 397/2/4 398/2/4
f 398/2/4 397/2/4 399/2/4
f 399/2/4 397/2/4 400/2/4
f 399/2/4 400/2/4 404/2/4
f 400/2/4 401/2/4 404/2/4
f 404/2/4 401/2/4 405/2/4
f 401/1/4 402/1/4 406/1/4
f 405/2/4 401/2/4 406/2/4
f 406/1/4 402/1/4 407/1/4
f 404/2/4 405/2/4 408/2/4
f 403/2/4 404/2/4 408/2/4
f 408/2/4 405/2/4 409/2/4
f 410/2/4 411/2/4 412/2/4
f 412/2/4 411/2/4 413/2/4
f 414/2/4 415/2/4 416/2/4
f 416/2/4 415/2/4 417/2/4
f 418/2/4 419/2/4 421/2/4
f 421/2/4 419/2/4 422/2/4
f 419/1/4 420/1/4 423/1/4
f 422/2/4 419/2/4 423/2/4
f 423/1/4 420/1/4 424/1/4
f 422/2/4 423/2/4 426/2/4
f 423/2/4 424/2/4 426/2/4
f 426/2/4 424/2/4 427/2/4
f 427/2/4 424/2/4 428/2/4
f 425/2/4 426/2/4 429/2/4
f 426/2/4 427/2/4 429/2/4
f 429/2/4 427/2/4 430/2/4
f 431/2/4 432/2/4 433/2/4
f 433/2/4 432/2/4 434/2/4
f 438/2/5 436/2/5 435/2/5
f 439/2/5 436/2/5 438/2/5
f 441/2/5 438/2/5 437/2/5
f 441/2/5 440/2/5 439/2/5
f 441/2/5 439/2/5 438/2/5
f 442/2/5 440/2/5 441/2/5
f 443/2/5 441/2/5 437/2/5
f 443/1/5 442/1/5 441/1/5
f 444/1/5 442/1/5 443/1/5
f 447/2/5 443/2/5 437/2/5
f 448/2/5 443/2/5 447/2/5
f 450/2/5 446/2/5 445/2/5
f 451/2/5 446/2/5 450/2/5
f 453/2/5 452/2/5 451/2/5
f 453/2/5 451/2/5 450/2/5
f 453/2/5 450/2/5 449/2/5
f 454/2/5 452/2/5 453/2/5
f 455/2/5 452/2/5 454/2/5
f 456/2/5 452/2/5 455/2/5
f 457/2/5 455/2/5 454/2/5
f 458/2/5 455/2/5 457/2/5
f 462/2/5 460/2/5 459/2/5
f 463/2/5 460/2/5 462/2/5
f 465/2/5 462/2/5 461/2/5
f 465/2/5 464/2/5 463/2/5
f 465/2/5 463/2/5 462/2/5
f 466/2/5 464/2/5 465/2/5
f 467/2/5 464/2/5 466/2/5
f 468/2/5 464/2/5 467/2/5
f 469/2/5 467/2/5 466/2/5
f 470/2/5 467/2/5 469/2/5
f 474/2/5 472/2/5 471/2/5
f 475/2/5 472/2/5 474/2/5
f 477/2/5 475/2/5 474/2/5
f 477/2/5 476/2/5 475/2/5
f 477/2/5 474/2/5 473/2/5
f 478/2/5 476/2/5 477/2/5
f 479/2/5 476/2/5 478/2/5
f 480/2/5 476/2/5 479/2/5
f 481/2/5 479/2/5 478/2/5
f 482/2/5 479/2/5 481/2/5
f 488/2/5 484/2/5 483/2/5
f 489/2/5 484/2/5 488/2/5
f 490/2/5 486/2/5 485/2/5
f 491/2/5 486/2/5 490/2/5
f 492/1/5 488/1/5 487/1/5
f 493/1/5 488/1/5 492/1/5
f 497/2/5 494/2/5 493/2/5
f 498/2/5 494/2/5 497/2/5
f 499/2/5 496/2/5 495/2/5
f 500/2/5 496/2/5 499/2/5
f 501/1/5 499/1/5 498/1/5
f 502/1/5 499/1/5 501/1/5
f 508/2/5 504/2/5 503/2/5
f 509/2/5 504/2/5 508/2/5
f 510/2/5 506/2/5 505/2/5
f 511/2/5 506/2/5 510/2/5
f 513/1/5 508/1/5 507/1/5
f 514/1/5 508/1/5 513/1/5
f 515/1/5 512/1/5 511/1/5
f 516/1/5 512/1/5 515/1/5
f 521/2/5 518/2/5 517/2/5
f 522/2/5 518/2/5 521/2/5
f 523/2/5 520/2/5 519/2/5
f 524/2/5 520/2/5 523/2/5
f 525/2/6 526/2/6 529/2/6
f 529/2/6 526/2/6 530/2/6
f 527/2/6 528/2/6 532/2/6
f 532/2/6 528/2/6 533/2/6
f 530/2/6 531/2/6 534/2/6
f 529/2/6 530/2/6 534/2/6
f 534/2/6 531/2/6 535/2/6
f 535/2/6 531/2/6 536/2/6
f 535/1/6 536/1/6 538/1/6
f 538/1/6 536/1/6 539/1/6
f 537/2/6 538/2/6 540/2/6
f 540/2/6 538/2/6 541/2/6
f 542/2/6 543/2/6 544/2/6
f 544/2/6 543/2/6 545/2/6
f 546/2/6 547/2/6 548/2/6
f 548/2/6 547/2/6 549/2/6
f 550/2/6 551/2/6 554/2/6
f 552/2/6 553/2/6 554/2/6
f 551/2/6 552/2/6 554/2/6
f 554/2/6 553/2/6 555/2/6
f 555/2/6 553/2/6 556/2/6
f 556/2/6 553/2/6 557/2/6
f 554/1/6 555/1/6 558/1/6
f 555/2/6 556/2/6 559/2/6
f 558/1/6 555/1/6 559/1/6
f 559/2/6 556/2/6 560/2/6
f 561/1/6 562/1/6 563/1/6
f 563/1/6 562/1/6 564/1/6
f 564/2/6 565/2/6 568/2/6
f 568/2/6 565/2/6 569/2/6
f 566/2/6 567/2/6 570/2/6
f 570/2/6 567/2/6 571/2/6
f 569/1/6 570/1/6 572/1/6
f 572/1/6 570/1/6 573/1/6
f 574/2/6 575/2/6 579/2/6
f 579/2/6 575/2/6 580/2/6
f 576/2/6 577/2/6 581/2/6
f 581/2/6 577/2/6 582/2/6
f 578/1/6 579/1/6 584/1/6
f 584/1/6 579/1/6 585/1/6
f 582/1/6 583/1/6 588/1/6
f 588/1/6 583/1/6 589/1/6
f 585/2/6 586/2/6 590/2/6
f 590/2/6 586/2/6 591/2/6
f 587/2/6 588/2/6 592/2/6
f 592/2/6 588/2/6 593/2/6
f 594/2/6 595/2/6 596/2/6
f 596/2/6 595/2/6 597/2/6
f 598/2/6 599/2/6 600/2/6
f 600/2/6 599/2/6 601/2/6
f 602/1/6 603/1/6 604/1/6
f 604/1/6 603/1/6 605/1/6
f 606/1/6 607/1/6 610/1/6
f 607/2/6 608/2/6 611/2/6
f 610/1/6 607/1/6 611/1/6
f 608/1/6 609/1/6 612/1/6
f 611/2/6 608/2/6 612/2/6
f 612/1/6 609/1/6 613/1/6
f 610/2/6 611/2/6 614/2/6
f 611/2/6 612/2/6 614/2/6
f 612/2/6 613/2/6 614/2/6
f 614/2/6 613/2/6 615/2/6
f 615/2/6 613/2/6 616/2/6
f 616/2/6 613/2/6 617/2/6
f 615/2/6 616/2/6 618/2/6
f 618/2/6 616/2/6 619/2/6
f 620/2/6 621/2/6 623/2/6
f 623/2/6 621/2/6 624/2/6
f 622/2/6 623/2/6 626/2/6
f 624/2/6 625/2/6 626/2/6
f 623/2/6 624/2/6 626/2/6
f 626/2/6 625/2/6 627/2/6
f 627/2/6 625/2/6 628/2/6
f 628/2/6 625/2/6 629/2/6
f 630/1/6 631/1/6 633/1/6
f 631/2/6 632/2/6 634/2/6
f 633/1/6 631/1/6 634/1/6
f 634/2/6 632/2/6 635/2/6
f 634/2/6 635/2/6 637/2/6
f 635/2/6 636/2/6 637/2/6
f 633/2/6 634/2/6 637/2/6
f 637/2/6 636/2/6 638/2/6
f 638/2/6 636/2/6 639/2/6
f 639/2/6 636/2/6 640/2/6
f 637/1/6 638/1/6 641/1/6
f 638/2/6 639/2/6 642/2/6
f 641/1/6 638/1/6 642/1/6
f 642/2/6 639/2/6 643/2/6
f 644/1/6 645/1/6 646/1/6
f 646/1/6 645/1/6 647/1/6
