# MagicaVoxel @ Ephtracy

# material
mtllib grass0.mtl
usemtl palette

# normals
vn -1 0 0
vn 1 0 0
vn 0 0 1
vn 0 0 -1
vn 0 -1 0
vn 0 1 0

# texcoords
vt 0.970703 0.5
vt 0.974609 0.5
vt 0.978516 0.5

# verts
v -10.5 0 10.5
v -10.5 0 -10.5
v -10.5 1 10.5
v -10.5 1 -10.5
v -10.5 3 10.5
v -10.5 3 -10.5
v -8.5 3 -0.5
v -8.5 3 -1.5
v -8.5 4 -0.5
v -8.5 4 -1.5
v -5.5 3 8.5
v -5.5 3 7.5
v -5.5 4 8.5
v -5.5 4 7.5
v -0.5 3 7.5
v -0.5 3 6.5
v -0.5 4 7.5
v -0.5 4 6.5
v 1.5 3 2.5
v 1.5 3 1.5
v 1.5 4 2.5
v 1.5 4 1.5
v 2.5 3 -3.5
v 2.5 3 -4.5
v 2.5 4 -3.5
v 2.5 4 -4.5
v 9.5 3 5.5
v 9.5 3 4.5
v 9.5 4 5.5
v 9.5 4 4.5
v -7.5 3 -0.5
v -7.5 3 -1.5
v -7.5 4 -0.5
v -7.5 4 -1.5
v -4.5 3 8.5
v -4.5 3 7.5
v -4.5 4 8.5
v -4.5 4 7.5
v 0.5 3 7.5
v 0.5 3 6.5
v 0.5 4 7.5
v 0.5 4 6.5
v 2.5 3 2.5
v 2.5 3 1.5
v 2.5 4 2.5
v 2.5 4 1.5
v 3.5 3 -3.5
v 3.5 3 -4.5
v 3.5 4 -3.5
v 3.5 4 -4.5
v 10.5 0 10.5
v 10.5 0 -10.5
v 10.5 1 10.5
v 10.5 1 -10.5
v 10.5 3 10.5
v 10.5 3 5.5
v 10.5 3 4.5
v 10.5 3 -10.5
v 10.5 4 5.5
v 10.5 4 4.5
v -10.5 0 10.5
v -10.5 1 10.5
v -10.5 3 10.5
v 10.5 0 10.5
v 10.5 1 10.5
v 10.5 3 10.5
v -5.5 3 8.5
v -5.5 4 8.5
v -4.5 3 8.5
v -4.5 4 8.5
v -0.5 3 7.5
v -0.5 4 7.5
v 0.5 3 7.5
v 0.5 4 7.5
v 9.5 3 5.5
v 9.5 4 5.5
v 10.5 3 5.5
v 10.5 4 5.5
v 1.5 3 2.5
v 1.5 4 2.5
v 2.5 3 2.5
v 2.5 4 2.5
v -8.5 3 -0.5
v -8.5 4 -0.5
v -7.5 3 -0.5
v -7.5 4 -0.5
v 2.5 3 -3.5
v 2.5 4 -3.5
v 3.5 3 -3.5
v 3.5 4 -3.5
v -5.5 3 7.5
v -5.5 4 7.5
v -4.5 3 7.5
v -4.5 4 7.5
v -0.5 3 6.5
v -0.5 4 6.5
v 0.5 3 6.5
v 0.5 4 6.5
v 9.5 3 4.5
v 9.5 4 4.5
v 10.5 3 4.5
v 10.5 4 4.5
v 1.5 3 1.5
v 1.5 4 1.5
v 2.5 3 1.5
v 2.5 4 1.5
v -8.5 3 -1.5
v -8.5 4 -1.5
v -7.5 3 -1.5
v -7.5 4 -1.5
v 2.5 3 -4.5
v 2.5 4 -4.5
v 3.5 3 -4.5
v 3.5 4 -4.5
v -10.5 0 -10.5
v -10.5 1 -10.5
v -10.5 3 -10.5
v 10.5 0 -10.5
v 10.5 1 -10.5
v 10.5 3 -10.5
v -10.5 0 10.5
v 10.5 0 10.5
v -10.5 0 -10.5
v 10.5 0 -10.5
v -10.5 3 10.5
v 10.5 3 10.5
v -5.5 3 8.5
v -4.5 3 8.5
v -5.5 3 7.5
v -4.5 3 7.5
v -0.5 3 7.5
v 0.5 3 7.5
v -0.5 3 6.5
v 0.5 3 6.5
v 9.5 3 5.5
v 10.5 3 5.5
v 9.5 3 4.5
v 10.5 3 4.5
v 1.5 3 2.5
v 2.5 3 2.5
v 1.5 3 1.5
v 2.5 3 1.5
v -8.5 3 -0.5
v -7.5 3 -0.5
v -8.5 3 -1.5
v -7.5 3 -1.5
v 2.5 3 -3.5
v 3.5 3 -3.5
v 2.5 3 -4.5
v 3.5 3 -4.5
v -10.5 3 -10.5
v 10.5 3 -10.5
v -5.5 4 8.5
v -4.5 4 8.5
v -5.5 4 7.5
v -4.5 4 7.5
v -0.5 4 7.5
v 0.5 4 7.5
v -0.5 4 6.5
v 0.5 4 6.5
v 9.5 4 5.5
v 10.5 4 5.5
v 9.5 4 4.5
v 10.5 4 4.5
v 1.5 4 2.5
v 2.5 4 2.5
v 1.5 4 1.5
v 2.5 4 1.5
v -8.5 4 -0.5
v -7.5 4 -0.5
v -8.5 4 -1.5
v -7.5 4 -1.5
v 2.5 4 -3.5
v 3.5 4 -3.5
v 2.5 4 -4.5
v 3.5 4 -4.5

# faces
f 3/3/1 2/3/1 1/3/1
f 4/3/1 2/3/1 3/3/1
f 5/1/1 4/1/1 3/1/1
f 6/1/1 4/1/1 5/1/1
f 9/2/1 8/2/1 7/2/1
f 10/2/1 8/2/1 9/2/1
f 13/2/1 12/2/1 11/2/1
f 14/2/1 12/2/1 13/2/1
f 17/2/1 16/2/1 15/2/1
f 18/2/1 16/2/1 17/2/1
f 21/2/1 20/2/1 19/2/1
f 22/2/1 20/2/1 21/2/1
f 25/2/1 24/2/1 23/2/1
f 26/2/1 24/2/1 25/2/1
f 29/2/1 28/2/1 27/2/1
f 30/2/1 28/2/1 29/2/1
f 31/2/2 32/2/2 33/2/2
f 33/2/2 32/2/2 34/2/2
f 35/2/2 36/2/2 37/2/2
f 37/2/2 36/2/2 38/2/2
f 39/2/2 40/2/2 41/2/2
f 41/2/2 40/2/2 42/2/2
f 43/2/2 44/2/2 45/2/2
f 45/2/2 44/2/2 46/2/2
f 47/2/2 48/2/2 49/2/2
f 49/2/2 48/2/2 50/2/2
f 51/3/2 52/3/2 53/3/2
f 53/3/2 52/3/2 54/3/2
f 53/1/2 54/1/2 55/1/2
f 55/1/2 54/1/2 56/1/2
f 56/1/2 54/1/2 57/1/2
f 57/1/2 54/1/2 58/1/2
f 56/2/2 57/2/2 59/2/2
f 59/2/2 57/2/2 60/2/2
f 64/3/3 62/3/3 61/3/3
f 65/1/3 63/1/3 62/1/3
f 65/3/3 62/3/3 64/3/3
f 66/1/3 63/1/3 65/1/3
f 69/2/3 68/2/3 67/2/3
f 70/2/3 68/2/3 69/2/3
f 73/2/3 72/2/3 71/2/3
f 74/2/3 72/2/3 73/2/3
f 77/2/3 76/2/3 75/2/3
f 78/2/3 76/2/3 77/2/3
f 81/2/3 80/2/3 79/2/3
f 82/2/3 80/2/3 81/2/3
f 85/2/3 84/2/3 83/2/3
f 86/2/3 84/2/3 85/2/3
f 89/2/3 88/2/3 87/2/3
f 90/2/3 88/2/3 89/2/3
f 91/2/4 92/2/4 93/2/4
f 93/2/4 92/2/4 94/2/4
f 95/2/4 96/2/4 97/2/4
f 97/2/4 96/2/4 98/2/4
f 99/2/4 100/2/4 101/2/4
f 101/2/4 100/2/4 102/2/4
f 103/2/4 104/2/4 105/2/4
f 105/2/4 104/2/4 106/2/4
f 107/2/4 108/2/4 109/2/4
f 109/2/4 108/2/4 110/2/4
f 111/2/4 112/2/4 113/2/4
f 113/2/4 112/2/4 114/2/4
f 115/3/4 116/3/4 118/3/4
f 116/1/4 117/1/4 119/1/4
f 118/3/4 116/3/4 119/3/4
f 119/1/4 117/1/4 120/1/4
f 123/3/5 122/3/5 121/3/5
f 124/3/5 122/3/5 123/3/5
f 125/1/6 126/1/6 127/1/6
f 127/1/6 126/1/6 128/1/6
f 125/1/6 127/1/6 129/1/6
f 128/1/6 126/1/6 130/1/6
f 130/1/6 126/1/6 131/1/6
f 131/1/6 126/1/6 132/1/6
f 129/1/6 130/1/6 133/1/6
f 130/1/6 131/1/6 133/1/6
f 132/1/6 126/1/6 134/1/6
f 134/1/6 126/1/6 135/1/6
f 133/1/6 134/1/6 135/1/6
f 135/1/6 126/1/6 136/1/6
f 133/1/6 135/1/6 137/1/6
f 133/1/6 137/1/6 139/1/6
f 137/1/6 138/1/6 139/1/6
f 139/1/6 138/1/6 140/1/6
f 133/1/6 139/1/6 141/1/6
f 140/1/6 138/1/6 142/1/6
f 125/1/6 129/1/6 143/1/6
f 141/1/6 142/1/6 143/1/6
f 129/1/6 133/1/6 143/1/6
f 133/1/6 141/1/6 143/1/6
f 143/1/6 142/1/6 144/1/6
f 125/1/6 143/1/6 145/1/6
f 144/1/6 142/1/6 146/1/6
f 142/1/6 138/1/6 147/1/6
f 145/1/6 146/1/6 147/1/6
f 146/1/6 142/1/6 147/1/6
f 147/1/6 138/1/6 148/1/6
f 145/1/6 147/1/6 149/1/6
f 148/1/6 138/1/6 150/1/6
f 125/1/6 145/1/6 151/1/6
f 149/1/6 150/1/6 151/1/6
f 145/1/6 149/1/6 151/1/6
f 150/1/6 138/1/6 152/1/6
f 151/1/6 150/1/6 152/1/6
f 153/2/6 154/2/6 155/2/6
f 155/2/6 154/2/6 156/2/6
f 157/2/6 158/2/6 159/2/6
f 159/2/6 158/2/6 160/2/6
f 161/2/6 162/2/6 163/2/6
f 163/2/6 162/2/6 164/2/6
f 165/2/6 166/2/6 167/2/6
f 167/2/6 166/2/6 168/2/6
f 169/2/6 170/2/6 171/2/6
f 171/2/6 170/2/6 172/2/6
f 173/2/6 174/2/6 175/2/6
f 175/2/6 174/2/6 176/2/6
