# MagicaVoxel @ Ephtracy

# material
mtllib grass3.mtl
usemtl palette

# normals
vn -1 0 0
vn 1 0 0
vn 0 0 1
vn 0 0 -1
vn 0 -1 0
vn 0 1 0

# texcoords
vt 0.970703 0.5
vt 0.974609 0.5
vt 0.978516 0.5

# verts
v -10.5 0 10.5
v -10.5 0 -10.5
v -10.5 1 10.5
v -10.5 1 -10.5
v -10.5 3 10.5
v -10.5 3 -0.5
v -10.5 3 -1.5
v -10.5 3 -10.5
v -10.5 4 -0.5
v -10.5 4 -1.5
v -9.5 3 -7.5
v -9.5 3 -8.5
v -9.5 4 -7.5
v -9.5 4 -8.5
v -7.5 3 7.5
v -7.5 3 6.5
v -7.5 4 7.5
v -7.5 4 6.5
v -5.5 3 -3.5
v -5.5 3 -4.5
v -5.5 4 -3.5
v -5.5 4 -4.5
v -3.5 3 4.5
v -3.5 3 3.5
v -3.5 4 4.5
v -3.5 4 3.5
v -0.5 3 -7.5
v -0.5 3 -8.5
v -0.5 4 -7.5
v -0.5 4 -8.5
v 0.5 3 -0.5
v 0.5 3 -1.5
v 0.5 4 -0.5
v 0.5 4 -1.5
v 1.5 3 10.5
v 1.5 3 9.5
v 1.5 4 10.5
v 1.5 4 9.5
v 3.5 3 -4.5
v 3.5 3 -5.5
v 3.5 4 -4.5
v 3.5 4 -5.5
v 6.5 3 10.5
v 6.5 3 9.5
v 6.5 4 10.5
v 6.5 4 9.5
v 9.5 3 -0.5
v 9.5 3 -1.5
v 9.5 4 -0.5
v 9.5 4 -1.5
v -9.5 3 -0.5
v -9.5 3 -1.5
v -9.5 4 -0.5
v -9.5 4 -1.5
v -8.5 3 -7.5
v -8.5 3 -8.5
v -8.5 4 -7.5
v -8.5 4 -8.5
v -6.5 3 7.5
v -6.5 3 6.5
v -6.5 4 7.5
v -6.5 4 6.5
v -4.5 3 -3.5
v -4.5 3 -4.5
v -4.5 4 -3.5
v -4.5 4 -4.5
v -2.5 3 4.5
v -2.5 3 3.5
v -2.5 4 4.5
v -2.5 4 3.5
v 0.5 3 -7.5
v 0.5 3 -8.5
v 0.5 4 -7.5
v 0.5 4 -8.5
v 1.5 3 -0.5
v 1.5 3 -1.5
v 1.5 4 -0.5
v 1.5 4 -1.5
v 2.5 3 10.5
v 2.5 3 9.5
v 2.5 4 10.5
v 2.5 4 9.5
v 4.5 3 -4.5
v 4.5 3 -5.5
v 4.5 4 -4.5
v 4.5 4 -5.5
v 7.5 3 10.5
v 7.5 3 9.5
v 7.5 4 10.5
v 7.5 4 9.5
v 10.5 0 10.5
v 10.5 0 -10.5
v 10.5 1 10.5
v 10.5 1 -10.5
v 10.5 3 10.5
v 10.5 3 -0.5
v 10.5 3 -1.5
v 10.5 3 -10.5
v 10.5 4 -0.5
v 10.5 4 -1.5
v -10.5 0 10.5
v -10.5 1 10.5
v -10.5 3 10.5
v 1.5 3 10.5
v 1.5 4 10.5
v 2.5 3 10.5
v 2.5 4 10.5
v 6.5 3 10.5
v 6.5 4 10.5
v 7.5 3 10.5
v 7.5 4 10.5
v 10.5 0 10.5
v 10.5 1 10.5
v 10.5 3 10.5
v -7.5 3 7.5
v -7.5 4 7.5
v -6.5 3 7.5
v -6.5 4 7.5
v -3.5 3 4.5
v -3.5 4 4.5
v -2.5 3 4.5
v -2.5 4 4.5
v -10.5 3 -0.5
v -10.5 4 -0.5
v -9.5 3 -0.5
v -9.5 4 -0.5
v 0.5 3 -0.5
v 0.5 4 -0.5
v 1.5 3 -0.5
v 1.5 4 -0.5
v 9.5 3 -0.5
v 9.5 4 -0.5
v 10.5 3 -0.5
v 10.5 4 -0.5
v -5.5 3 -3.5
v -5.5 4 -3.5
v -4.5 3 -3.5
v -4.5 4 -3.5
v 3.5 3 -4.5
v 3.5 4 -4.5
v 4.5 3 -4.5
v 4.5 4 -4.5
v -9.5 3 -7.5
v -9.5 4 -7.5
v -8.5 3 -7.5
v -8.5 4 -7.5
v -0.5 3 -7.5
v -0.5 4 -7.5
v 0.5 3 -7.5
v 0.5 4 -7.5
v 1.5 3 9.5
v 1.5 4 9.5
v 2.5 3 9.5
v 2.5 4 9.5
v 6.5 3 9.5
v 6.5 4 9.5
v 7.5 3 9.5
v 7.5 4 9.5
v -7.5 3 6.5
v -7.5 4 6.5
v -6.5 3 6.5
v -6.5 4 6.5
v -3.5 3 3.5
v -3.5 4 3.5
v -2.5 3 3.5
v -2.5 4 3.5
v -10.5 3 -1.5
v -10.5 4 -1.5
v -9.5 3 -1.5
v -9.5 4 -1.5
v 0.5 3 -1.5
v 0.5 4 -1.5
v 1.5 3 -1.5
v 1.5 4 -1.5
v 9.5 3 -1.5
v 9.5 4 -1.5
v 10.5 3 -1.5
v 10.5 4 -1.5
v -5.5 3 -4.5
v -5.5 4 -4.5
v -4.5 3 -4.5
v -4.5 4 -4.5
v 3.5 3 -5.5
v 3.5 4 -5.5
v 4.5 3 -5.5
v 4.5 4 -5.5
v -9.5 3 -8.5
v -9.5 4 -8.5
v -8.5 3 -8.5
v -8.5 4 -8.5
v -0.5 3 -8.5
v -0.5 4 -8.5
v 0.5 3 -8.5
v 0.5 4 -8.5
v -10.5 0 -10.5
v -10.5 1 -10.5
v -10.5 3 -10.5
v 10.5 0 -10.5
v 10.5 1 -10.5
v 10.5 3 -10.5
v -10.5 0 10.5
v 10.5 0 10.5
v -10.5 0 -10.5
v 10.5 0 -10.5
v -10.5 3 10.5
v 1.5 3 10.5
v 2.5 3 10.5
v 6.5 3 10.5
v 7.5 3 10.5
v 10.5 3 10.5
v 1.5 3 9.5
v 2.5 3 9.5
v 6.5 3 9.5
v 7.5 3 9.5
v -7.5 3 7.5
v -6.5 3 7.5
v -7.5 3 6.5
v -6.5 3 6.5
v -3.5 3 4.5
v -2.5 3 4.5
v -3.5 3 3.5
v -2.5 3 3.5
v -10.5 3 -0.5
v -9.5 3 -0.5
v 0.5 3 -0.5
v 1.5 3 -0.5
v 9.5 3 -0.5
v 10.5 3 -0.5
v -10.5 3 -1.5
v -9.5 3 -1.5
v 0.5 3 -1.5
v 1.5 3 -1.5
v 9.5 3 -1.5
v 10.5 3 -1.5
v -5.5 3 -3.5
v -4.5 3 -3.5
v -5.5 3 -4.5
v -4.5 3 -4.5
v 3.5 3 -4.5
v 4.5 3 -4.5
v 3.5 3 -5.5
v 4.5 3 -5.5
v -9.5 3 -7.5
v -8.5 3 -7.5
v -0.5 3 -7.5
v 0.5 3 -7.5
v -9.5 3 -8.5
v -8.5 3 -8.5
v -0.5 3 -8.5
v 0.5 3 -8.5
v -10.5 3 -10.5
v 10.5 3 -10.5
v 1.5 4 10.5
v 2.5 4 10.5
v 6.5 4 10.5
v 7.5 4 10.5
v 1.5 4 9.5
v 2.5 4 9.5
v 6.5 4 9.5
v 7.5 4 9.5
v -7.5 4 7.5
v -6.5 4 7.5
v -7.5 4 6.5
v -6.5 4 6.5
v -3.5 4 4.5
v -2.5 4 4.5
v -3.5 4 3.5
v -2.5 4 3.5
v -10.5 4 -0.5
v -9.5 4 -0.5
v 0.5 4 -0.5
v 1.5 4 -0.5
v 9.5 4 -0.5
v 10.5 4 -0.5
v -10.5 4 -1.5
v -9.5 4 -1.5
v 0.5 4 -1.5
v 1.5 4 -1.5
v 9.5 4 -1.5
v 10.5 4 -1.5
v -5.5 4 -3.5
v -4.5 4 -3.5
v -5.5 4 -4.5
v -4.5 4 -4.5
v 3.5 4 -4.5
v 4.5 4 -4.5
v 3.5 4 -5.5
v 4.5 4 -5.5
v -9.5 4 -7.5
v -8.5 4 -7.5
v -0.5 4 -7.5
v 0.5 4 -7.5
v -9.5 4 -8.5
v -8.5 4 -8.5
v -0.5 4 -8.5
v 0.5 4 -8.5

# faces
f 3/3/1 2/3/1 1/3/1
f 4/3/1 2/3/1 3/3/1
f 5/1/1 4/1/1 3/1/1
f 6/1/1 4/1/1 5/1/1
f 7/1/1 4/1/1 6/1/1
f 8/1/1 4/1/1 7/1/1
f 9/2/1 7/2/1 6/2/1
f 10/2/1 7/2/1 9/2/1
f 13/2/1 12/2/1 11/2/1
f 14/2/1 12/2/1 13/2/1
f 17/2/1 16/2/1 15/2/1
f 18/2/1 16/2/1 17/2/1
f 21/2/1 20/2/1 19/2/1
f 22/2/1 20/2/1 21/2/1
f 25/2/1 24/2/1 23/2/1
f 26/2/1 24/2/1 25/2/1
f 29/2/1 28/2/1 27/2/1
f 30/2/1 28/2/1 29/2/1
f 33/2/1 32/2/1 31/2/1
f 34/2/1 32/2/1 33/2/1
f 37/2/1 36/2/1 35/2/1
f 38/2/1 36/2/1 37/2/1
f 41/2/1 40/2/1 39/2/1
f 42/2/1 40/2/1 41/2/1
f 45/2/1 44/2/1 43/2/1
f 46/2/1 44/2/1 45/2/1
f 49/2/1 48/2/1 47/2/1
f 50/2/1 48/2/1 49/2/1
f 51/2/2 52/2/2 53/2/2
f 53/2/2 52/2/2 54/2/2
f 55/2/2 56/2/2 57/2/2
f 57/2/2 56/2/2 58/2/2
f 59/2/2 60/2/2 61/2/2
f 61/2/2 60/2/2 62/2/2
f 63/2/2 64/2/2 65/2/2
f 65/2/2 64/2/2 66/2/2
f 67/2/2 68/2/2 69/2/2
f 69/2/2 68/2/2 70/2/2
f 71/2/2 72/2/2 73/2/2
f 73/2/2 72/2/2 74/2/2
f 75/2/2 76/2/2 77/2/2
f 77/2/2 76/2/2 78/2/2
f 79/2/2 80/2/2 81/2/2
f 81/2/2 80/2/2 82/2/2
f 83/2/2 84/2/2 85/2/2
f 85/2/2 84/2/2 86/2/2
f 87/2/2 88/2/2 89/2/2
f 89/2/2 88/2/2 90/2/2
f 91/3/2 92/3/2 93/3/2
f 93/3/2 92/3/2 94/3/2
f 93/1/2 94/1/2 95/1/2
f 95/1/2 94/1/2 96/1/2
f 96/1/2 94/1/2 97/1/2
f 97/1/2 94/1/2 98/1/2
f 96/2/2 97/2/2 99/2/2
f 99/2/2 97/2/2 100/2/2
f 104/1/3 103/1/3 102/1/3
f 106/1/3 104/1/3 102/1/3
f 106/2/3 105/2/3 104/2/3
f 107/2/3 105/2/3 106/2/3
f 108/1/3 106/1/3 102/1/3
f 110/1/3 108/1/3 102/1/3
f 110/2/3 109/2/3 108/2/3
f 111/2/3 109/2/3 110/2/3
f 112/3/3 102/3/3 101/3/3
f 113/1/3 110/1/3 102/1/3
f 113/3/3 102/3/3 112/3/3
f 114/1/3 110/1/3 113/1/3
f 117/2/3 116/2/3 115/2/3
f 118/2/3 116/2/3 117/2/3
f 121/2/3 120/2/3 119/2/3
f 122/2/3 120/2/3 121/2/3
f 125/2/3 124/2/3 123/2/3
f 126/2/3 124/2/3 125/2/3
f 129/2/3 128/2/3 127/2/3
f 130/2/3 128/2/3 129/2/3
f 133/2/3 132/2/3 131/2/3
f 134/2/3 132/2/3 133/2/3
f 137/2/3 136/2/3 135/2/3
f 138/2/3 136/2/3 137/2/3
f 141/2/3 140/2/3 139/2/3
f 142/2/3 140/2/3 141/2/3
f 145/2/3 144/2/3 143/2/3
f 146/2/3 144/2/3 145/2/3
f 149/2/3 148/2/3 147/2/3
f 150/2/3 148/2/3 149/2/3
f 151/2/4 152/2/4 153/2/4
f 153/2/4 152/2/4 154/2/4
f 155/2/4 156/2/4 157/2/4
f 157/2/4 156/2/4 158/2/4
f 159/2/4 160/2/4 161/2/4
f 161/2/4 160/2/4 162/2/4
f 163/2/4 164/2/4 165/2/4
f 165/2/4 164/2/4 166/2/4
f 167/2/4 168/2/4 169/2/4
f 169/2/4 168/2/4 170/2/4
f 171/2/4 172/2/4 173/2/4
f 173/2/4 172/2/4 174/2/4
f 175/2/4 176/2/4 177/2/4
f 177/2/4 176/2/4 178/2/4
f 179/2/4 180/2/4 181/2/4
f 181/2/4 180/2/4 182/2/4
f 183/2/4 184/2/4 185/2/4
f 185/2/4 184/2/4 186/2/4
f 187/2/4 188/2/4 189/2/4
f 189/2/4 188/2/4 190/2/4
f 191/2/4 192/2/4 193/2/4
f 193/2/4 192/2/4 194/2/4
f 195/3/4 196/3/4 198/3/4
f 196/1/4 197/1/4 199/1/4
f 198/3/4 196/3/4 199/3/4
f 199/1/4 197/1/4 200/1/4
f 203/3/5 202/3/5 201/3/5
f 204/3/5 202/3/5 203/3/5
f 205/1/6 206/1/6 211/1/6
f 207/1/6 208/1/6 212/1/6
f 212/1/6 208/1/6 213/1/6
f 209/1/6 210/1/6 214/1/6
f 212/1/6 213/1/6 215/1/6
f 213/1/6 214/1/6 215/1/6
f 205/1/6 211/1/6 215/1/6
f 211/1/6 212/1/6 215/1/6
f 215/1/6 214/1/6 216/1/6
f 205/1/6 215/1/6 217/1/6
f 216/1/6 214/1/6 218/1/6
f 218/1/6 214/1/6 219/1/6
f 217/1/6 218/1/6 219/1/6
f 219/1/6 214/1/6 220/1/6
f 217/1/6 219/1/6 221/1/6
f 220/1/6 214/1/6 222/1/6
f 205/1/6 217/1/6 223/1/6
f 221/1/6 222/1/6 223/1/6
f 217/1/6 221/1/6 223/1/6
f 223/1/6 222/1/6 224/1/6
f 222/1/6 214/1/6 225/1/6
f 224/1/6 222/1/6 225/1/6
f 225/1/6 214/1/6 226/1/6
f 214/1/6 210/1/6 227/1/6
f 226/1/6 214/1/6 227/1/6
f 227/1/6 210/1/6 228/1/6
f 224/1/6 225/1/6 230/1/6
f 230/1/6 225/1/6 231/1/6
f 226/1/6 227/1/6 232/1/6
f 232/1/6 227/1/6 233/1/6
f 230/1/6 231/1/6 235/1/6
f 233/1/6 234/1/6 235/1/6
f 232/1/6 233/1/6 235/1/6
f 231/1/6 232/1/6 235/1/6
f 229/1/6 230/1/6 235/1/6
f 235/1/6 234/1/6 236/1/6
f 229/1/6 235/1/6 237/1/6
f 236/1/6 234/1/6 238/1/6
f 238/1/6 234/1/6 239/1/6
f 239/1/6 234/1/6 240/1/6
f 237/1/6 238/1/6 241/1/6
f 238/1/6 239/1/6 241/1/6
f 240/1/6 234/1/6 242/1/6
f 229/1/6 237/1/6 243/1/6
f 241/1/6 242/1/6 243/1/6
f 237/1/6 241/1/6 243/1/6
f 243/1/6 242/1/6 244/1/6
f 244/1/6 242/1/6 245/1/6
f 245/1/6 242/1/6 246/1/6
f 229/1/6 243/1/6 247/1/6
f 244/1/6 245/1/6 248/1/6
f 248/1/6 245/1/6 249/1/6
f 246/1/6 242/1/6 250/1/6
f 248/1/6 249/1/6 251/1/6
f 249/1/6 250/1/6 251/1/6
f 229/1/6 247/1/6 251/1/6
f 247/1/6 248/1/6 251/1/6
f 242/1/6 234/1/6 252/1/6
f 251/1/6 250/1/6 252/1/6
f 250/1/6 242/1/6 252/1/6
f 253/2/6 254/2/6 257/2/6
f 257/2/6 254/2/6 258/2/6
f 255/2/6 256/2/6 259/2/6
f 259/2/6 256/2/6 260/2/6
f 261/2/6 262/2/6 263/2/6
f 263/2/6 262/2/6 264/2/6
f 265/2/6 266/2/6 267/2/6
f 267/2/6 266/2/6 268/2/6
f 269/2/6 270/2/6 275/2/6
f 275/2/6 270/2/6 276/2/6
f 271/2/6 272/2/6 277/2/6
f 277/2/6 272/2/6 278/2/6
f 273/2/6 274/2/6 279/2/6
f 279/2/6 274/2/6 280/2/6
f 281/2/6 282/2/6 283/2/6
f 283/2/6 282/2/6 284/2/6
f 285/2/6 286/2/6 287/2/6
f 287/2/6 286/2/6 288/2/6
f 289/2/6 290/2/6 293/2/6
f 293/2/6 290/2/6 294/2/6
f 291/2/6 292/2/6 295/2/6
f 295/2/6 292/2/6 296/2/6
