# MagicaVoxel @ Ephtracy

# material
mtllib grass4.mtl
usemtl palette

# normals
vn -1 0 0
vn 1 0 0
vn 0 0 1
vn 0 0 -1
vn 0 -1 0
vn 0 1 0

# texcoords
vt 0.970703 0.5
vt 0.974609 0.5
vt 0.978516 0.5

# verts
v -10.5 0 10.5
v -10.5 0 -10.5
v -10.5 1 10.5
v -10.5 1 -10.5
v -10.5 3 10.5
v -10.5 3 -10.5
v -8.5 3 -3.5
v -8.5 3 -4.5
v -8.5 4 -3.5
v -8.5 4 -4.5
v -6.5 3 6.5
v -6.5 3 5.5
v -6.5 4 6.5
v -6.5 4 5.5
v -2.5 3 -9.5
v -2.5 3 -10.5
v -2.5 4 -9.5
v -2.5 4 -10.5
v -0.5 3 10.5
v -0.5 3 9.5
v -0.5 3 -7.5
v -0.5 3 -8.5
v -0.5 4 10.5
v -0.5 4 9.5
v -0.5 4 -7.5
v -0.5 4 -8.5
v 1.5 3 -0.5
v 1.5 3 -1.5
v 1.5 4 -0.5
v 1.5 4 -1.5
v 2.5 3 6.5
v 2.5 3 5.5
v 2.5 4 6.5
v 2.5 4 5.5
v 6.5 3 6.5
v 6.5 3 5.5
v 6.5 4 6.5
v 6.5 4 5.5
v 7.5 3 -2.5
v 7.5 3 -3.5
v 7.5 4 -2.5
v 7.5 4 -3.5
v -7.5 3 -3.5
v -7.5 3 -4.5
v -7.5 4 -3.5
v -7.5 4 -4.5
v -5.5 3 6.5
v -5.5 3 5.5
v -5.5 4 6.5
v -5.5 4 5.5
v -1.5 3 -9.5
v -1.5 3 -10.5
v -1.5 4 -9.5
v -1.5 4 -10.5
v 0.5 3 10.5
v 0.5 3 9.5
v 0.5 3 -7.5
v 0.5 3 -8.5
v 0.5 4 10.5
v 0.5 4 9.5
v 0.5 4 -7.5
v 0.5 4 -8.5
v 2.5 3 -0.5
v 2.5 3 -1.5
v 2.5 4 -0.5
v 2.5 4 -1.5
v 3.5 3 6.5
v 3.5 3 5.5
v 3.5 4 6.5
v 3.5 4 5.5
v 7.5 3 6.5
v 7.5 3 5.5
v 7.5 4 6.5
v 7.5 4 5.5
v 8.5 3 -2.5
v 8.5 3 -3.5
v 8.5 4 -2.5
v 8.5 4 -3.5
v 10.5 0 10.5
v 10.5 0 -10.5
v 10.5 1 10.5
v 10.5 1 -10.5
v 10.5 3 10.5
v 10.5 3 -10.5
v -10.5 0 10.5
v -10.5 1 10.5
v -10.5 3 10.5
v -0.5 3 10.5
v -0.5 4 10.5
v 0.5 3 10.5
v 0.5 4 10.5
v 10.5 0 10.5
v 10.5 1 10.5
v 10.5 3 10.5
v -6.5 3 6.5
v -6.5 4 6.5
v -5.5 3 6.5
v -5.5 4 6.5
v 2.5 3 6.5
v 2.5 4 6.5
v 3.5 3 6.5
v 3.5 4 6.5
v 6.5 3 6.5
v 6.5 4 6.5
v 7.5 3 6.5
v 7.5 4 6.5
v 1.5 3 -0.5
v 1.5 4 -0.5
v 2.5 3 -0.5
v 2.5 4 -0.5
v 7.5 3 -2.5
v 7.5 4 -2.5
v 8.5 3 -2.5
v 8.5 4 -2.5
v -8.5 3 -3.5
v -8.5 4 -3.5
v -7.5 3 -3.5
v -7.5 4 -3.5
v -0.5 3 -7.5
v -0.5 4 -7.5
v 0.5 3 -7.5
v 0.5 4 -7.5
v -2.5 3 -9.5
v -2.5 4 -9.5
v -1.5 3 -9.5
v -1.5 4 -9.5
v -0.5 3 9.5
v -0.5 4 9.5
v 0.5 3 9.5
v 0.5 4 9.5
v -6.5 3 5.5
v -6.5 4 5.5
v -5.5 3 5.5
v -5.5 4 5.5
v 2.5 3 5.5
v 2.5 4 5.5
v 3.5 3 5.5
v 3.5 4 5.5
v 6.5 3 5.5
v 6.5 4 5.5
v 7.5 3 5.5
v 7.5 4 5.5
v 1.5 3 -1.5
v 1.5 4 -1.5
v 2.5 3 -1.5
v 2.5 4 -1.5
v 7.5 3 -3.5
v 7.5 4 -3.5
v 8.5 3 -3.5
v 8.5 4 -3.5
v -8.5 3 -4.5
v -8.5 4 -4.5
v -7.5 3 -4.5
v -7.5 4 -4.5
v -0.5 3 -8.5
v -0.5 4 -8.5
v 0.5 3 -8.5
v 0.5 4 -8.5
v -10.5 0 -10.5
v -10.5 1 -10.5
v -10.5 3 -10.5
v -2.5 3 -10.5
v -2.5 4 -10.5
v -1.5 3 -10.5
v -1.5 4 -10.5
v 10.5 0 -10.5
v 10.5 1 -10.5
v 10.5 3 -10.5
v -10.5 0 10.5
v 10.5 0 10.5
v -10.5 0 -10.5
v 10.5 0 -10.5
v -10.5 3 10.5
v -0.5 3 10.5
v 0.5 3 10.5
v 10.5 3 10.5
v -0.5 3 9.5
v 0.5 3 9.5
v -6.5 3 6.5
v -5.5 3 6.5
v 2.5 3 6.5
v 3.5 3 6.5
v 6.5 3 6.5
v 7.5 3 6.5
v -6.5 3 5.5
v -5.5 3 5.5
v 2.5 3 5.5
v 3.5 3 5.5
v 6.5 3 5.5
v 7.5 3 5.5
v 1.5 3 -0.5
v 2.5 3 -0.5
v 1.5 3 -1.5
v 2.5 3 -1.5
v 7.5 3 -2.5
v 8.5 3 -2.5
v -8.5 3 -3.5
v -7.5 3 -3.5
v 7.5 3 -3.5
v 8.5 3 -3.5
v -8.5 3 -4.5
v -7.5 3 -4.5
v -0.5 3 -7.5
v 0.5 3 -7.5
v -0.5 3 -8.5
v 0.5 3 -8.5
v -2.5 3 -9.5
v -1.5 3 -9.5
v -10.5 3 -10.5
v -2.5 3 -10.5
v -1.5 3 -10.5
v 10.5 3 -10.5
v -0.5 4 10.5
v 0.5 4 10.5
v -0.5 4 9.5
v 0.5 4 9.5
v -6.5 4 6.5
v -5.5 4 6.5
v 2.5 4 6.5
v 3.5 4 6.5
v 6.5 4 6.5
v 7.5 4 6.5
v -6.5 4 5.5
v -5.5 4 5.5
v 2.5 4 5.5
v 3.5 4 5.5
v 6.5 4 5.5
v 7.5 4 5.5
v 1.5 4 -0.5
v 2.5 4 -0.5
v 1.5 4 -1.5
v 2.5 4 -1.5
v 7.5 4 -2.5
v 8.5 4 -2.5
v -8.5 4 -3.5
v -7.5 4 -3.5
v 7.5 4 -3.5
v 8.5 4 -3.5
v -8.5 4 -4.5
v -7.5 4 -4.5
v -0.5 4 -7.5
v 0.5 4 -7.5
v -0.5 4 -8.5
v 0.5 4 -8.5
v -2.5 4 -9.5
v -1.5 4 -9.5
v -2.5 4 -10.5
v -1.5 4 -10.5

# faces
f 3/3/1 2/3/1 1/3/1
f 4/3/1 2/3/1 3/3/1
f 5/1/1 4/1/1 3/1/1
f 6/1/1 4/1/1 5/1/1
f 9/2/1 8/2/1 7/2/1
f 10/2/1 8/2/1 9/2/1
f 13/2/1 12/2/1 11/2/1
f 14/2/1 12/2/1 13/2/1
f 17/2/1 16/2/1 15/2/1
f 18/2/1 16/2/1 17/2/1
f 23/2/1 20/2/1 19/2/1
f 24/2/1 20/2/1 23/2/1
f 25/2/1 22/2/1 21/2/1
f 26/2/1 22/2/1 25/2/1
f 29/2/1 28/2/1 27/2/1
f 30/2/1 28/2/1 29/2/1
f 33/2/1 32/2/1 31/2/1
f 34/2/1 32/2/1 33/2/1
f 37/2/1 36/2/1 35/2/1
f 38/2/1 36/2/1 37/2/1
f 41/2/1 40/2/1 39/2/1
f 42/2/1 40/2/1 41/2/1
f 43/2/2 44/2/2 45/2/2
f 45/2/2 44/2/2 46/2/2
f 47/2/2 48/2/2 49/2/2
f 49/2/2 48/2/2 50/2/2
f 51/2/2 52/2/2 53/2/2
f 53/2/2 52/2/2 54/2/2
f 55/2/2 56/2/2 59/2/2
f 59/2/2 56/2/2 60/2/2
f 57/2/2 58/2/2 61/2/2
f 61/2/2 58/2/2 62/2/2
f 63/2/2 64/2/2 65/2/2
f 65/2/2 64/2/2 66/2/2
f 67/2/2 68/2/2 69/2/2
f 69/2/2 68/2/2 70/2/2
f 71/2/2 72/2/2 73/2/2
f 73/2/2 72/2/2 74/2/2
f 75/2/2 76/2/2 77/2/2
f 77/2/2 76/2/2 78/2/2
f 79/3/2 80/3/2 81/3/2
f 81/3/2 80/3/2 82/3/2
f 81/1/2 82/1/2 83/1/2
f 83/1/2 82/1/2 84/1/2
f 88/1/3 87/1/3 86/1/3
f 90/1/3 88/1/3 86/1/3
f 90/2/3 89/2/3 88/2/3
f 91/2/3 89/2/3 90/2/3
f 92/3/3 86/3/3 85/3/3
f 93/1/3 90/1/3 86/1/3
f 93/3/3 86/3/3 92/3/3
f 94/1/3 90/1/3 93/1/3
f 97/2/3 96/2/3 95/2/3
f 98/2/3 96/2/3 97/2/3
f 101/2/3 100/2/3 99/2/3
f 102/2/3 100/2/3 101/2/3
f 105/2/3 104/2/3 103/2/3
f 106/2/3 104/2/3 105/2/3
f 109/2/3 108/2/3 107/2/3
f 110/2/3 108/2/3 109/2/3
f 113/2/3 112/2/3 111/2/3
f 114/2/3 112/2/3 113/2/3
f 117/2/3 116/2/3 115/2/3
f 118/2/3 116/2/3 117/2/3
f 121/2/3 120/2/3 119/2/3
f 122/2/3 120/2/3 121/2/3
f 125/2/3 124/2/3 123/2/3
f 126/2/3 124/2/3 125/2/3
f 127/2/4 128/2/4 129/2/4
f 129/2/4 128/2/4 130/2/4
f 131/2/4 132/2/4 133/2/4
f 133/2/4 132/2/4 134/2/4
f 135/2/4 136/2/4 137/2/4
f 137/2/4 136/2/4 138/2/4
f 139/2/4 140/2/4 141/2/4
f 141/2/4 140/2/4 142/2/4
f 143/2/4 144/2/4 145/2/4
f 145/2/4 144/2/4 146/2/4
f 147/2/4 148/2/4 149/2/4
f 149/2/4 148/2/4 150/2/4
f 151/2/4 152/2/4 153/2/4
f 153/2/4 152/2/4 154/2/4
f 155/2/4 156/2/4 157/2/4
f 157/2/4 156/2/4 158/2/4
f 160/1/4 161/1/4 162/1/4
f 160/1/4 162/1/4 164/1/4
f 162/2/4 163/2/4 164/2/4
f 164/2/4 163/2/4 165/2/4
f 159/3/4 160/3/4 166/3/4
f 160/1/4 164/1/4 167/1/4
f 166/3/4 160/3/4 167/3/4
f 167/1/4 164/1/4 168/1/4
f 171/3/5 170/3/5 169/3/5
f 172/3/5 170/3/5 171/3/5
f 173/1/6 174/1/6 177/1/6
f 175/1/6 176/1/6 178/1/6
f 173/1/6 177/1/6 179/1/6
f 177/1/6 178/1/6 179/1/6
f 179/1/6 178/1/6 180/1/6
f 178/1/6 176/1/6 181/1/6
f 180/1/6 178/1/6 181/1/6
f 181/1/6 176/1/6 182/1/6
f 182/1/6 176/1/6 183/1/6
f 183/1/6 176/1/6 184/1/6
f 173/1/6 179/1/6 185/1/6
f 180/1/6 181/1/6 186/1/6
f 186/1/6 181/1/6 187/1/6
f 182/1/6 183/1/6 188/1/6
f 188/1/6 183/1/6 189/1/6
f 184/1/6 176/1/6 190/1/6
f 188/1/6 189/1/6 191/1/6
f 189/1/6 190/1/6 191/1/6
f 186/1/6 187/1/6 191/1/6
f 185/1/6 186/1/6 191/1/6
f 187/1/6 188/1/6 191/1/6
f 191/1/6 190/1/6 192/1/6
f 185/1/6 191/1/6 193/1/6
f 192/1/6 190/1/6 194/1/6
f 190/1/6 176/1/6 195/1/6
f 193/1/6 194/1/6 195/1/6
f 194/1/6 190/1/6 195/1/6
f 195/1/6 176/1/6 196/1/6
f 173/1/6 185/1/6 197/1/6
f 185/1/6 193/1/6 197/1/6
f 193/1/6 195/1/6 197/1/6
f 197/1/6 195/1/6 198/1/6
f 198/1/6 195/1/6 199/1/6
f 196/1/6 176/1/6 200/1/6
f 173/1/6 197/1/6 201/1/6
f 198/1/6 199/1/6 202/1/6
f 199/1/6 200/1/6 202/1/6
f 202/1/6 200/1/6 203/1/6
f 201/1/6 202/1/6 203/1/6
f 203/1/6 200/1/6 204/1/6
f 201/1/6 203/1/6 205/1/6
f 204/1/6 200/1/6 206/1/6
f 201/1/6 205/1/6 207/1/6
f 205/1/6 206/1/6 207/1/6
f 207/1/6 206/1/6 208/1/6
f 173/1/6 201/1/6 209/1/6
f 201/1/6 207/1/6 209/1/6
f 209/1/6 207/1/6 210/1/6
f 208/1/6 206/1/6 211/1/6
f 200/1/6 176/1/6 212/1/6
f 211/1/6 206/1/6 212/1/6
f 206/1/6 200/1/6 212/1/6
f 213/2/6 214/2/6 215/2/6
f 215/2/6 214/2/6 216/2/6
f 217/2/6 218/2/6 223/2/6
f 223/2/6 218/2/6 224/2/6
f 219/2/6 220/2/6 225/2/6
f 225/2/6 220/2/6 226/2/6
f 221/2/6 222/2/6 227/2/6
f 227/2/6 222/2/6 228/2/6
f 229/2/6 230/2/6 231/2/6
f 231/2/6 230/2/6 232/2/6
f 233/2/6 234/2/6 237/2/6
f 237/2/6 234/2/6 238/2/6
f 235/2/6 236/2/6 239/2/6
f 239/2/6 236/2/6 240/2/6
f 241/2/6 242/2/6 243/2/6
f 243/2/6 242/2/6 244/2/6
f 245/2/6 246/2/6 247/2/6
f 247/2/6 246/2/6 248/2/6
