# MagicaVoxel @ Ephtracy

# material
mtllib rocks1.mtl
usemtl palette

# normals
vn -1 0 0
vn 1 0 0
vn 0 0 1
vn 0 0 -1
vn 0 -1 0
vn 0 1 0

# texcoords
vt 0.943359 0.5

# verts
v -7.5 3 4.5
v -7.5 3 2.5
v -7.5 5 4.5
v -7.5 5 2.5
v -6.5 3 -3.5
v -6.5 3 -7.5
v -6.5 7 -3.5
v -6.5 7 -7.5
v -5.5 3 5.5
v -5.5 3 4.5
v -5.5 3 -0.5
v -5.5 3 -2.5
v -5.5 5 5.5
v -5.5 5 4.5
v -5.5 5 -0.5
v -5.5 5 -2.5
v -3.5 3 8.5
v -3.5 3 6.5
v -3.5 3 -2.5
v -3.5 3 -3.5
v -3.5 5 8.5
v -3.5 5 6.5
v -3.5 5 -2.5
v -3.5 5 -3.5
v -2.5 3 3.5
v -2.5 3 1.5
v -2.5 5 3.5
v -2.5 5 1.5
v -1.5 3 4.5
v -1.5 3 3.5
v -1.5 3 1.5
v -1.5 3 -0.5
v -1.5 5 4.5
v -1.5 5 3.5
v -1.5 5 1.5
v -1.5 5 -0.5
v -1.5 7 3.5
v -1.5 7 1.5
v -0.5 3 5.5
v -0.5 3 4.5
v -0.5 3 -0.5
v -0.5 3 -4.5
v -0.5 5 5.5
v -0.5 5 4.5
v -0.5 5 -0.5
v -0.5 7 -0.5
v -0.5 7 -4.5
v 1.5 3 0.5
v 1.5 3 -0.5
v 1.5 5 1.5
v 1.5 5 0.5
v 1.5 7 1.5
v 1.5 7 -0.5
v 5.5 3 3.5
v 5.5 3 1.5
v 5.5 5 3.5
v 5.5 5 1.5
v -5.5 3 3.5
v -5.5 3 2.5
v -5.5 5 3.5
v -5.5 5 2.5
v -3.5 3 5.5
v -3.5 3 3.5
v -3.5 3 -0.5
v -3.5 3 -2.5
v -3.5 5 5.5
v -3.5 5 3.5
v -3.5 5 -0.5
v -3.5 5 -2.5
v -2.5 3 -4.5
v -2.5 3 -5.5
v -2.5 5 -3.5
v -2.5 5 -4.5
v -2.5 5 -5.5
v -2.5 5 -7.5
v -2.5 7 -3.5
v -2.5 7 -7.5
v -1.5 3 8.5
v -1.5 3 6.5
v -1.5 3 -2.5
v -1.5 3 -4.5
v -1.5 5 8.5
v -1.5 5 6.5
v -1.5 5 -2.5
v -1.5 5 -4.5
v -0.5 3 -5.5
v -0.5 3 -7.5
v -0.5 5 -5.5
v -0.5 5 -7.5
v 0.5 3 0.5
v 0.5 3 -0.5
v 0.5 5 3.5
v 0.5 5 1.5
v 0.5 5 0.5
v 0.5 5 -0.5
v 0.5 7 3.5
v 0.5 7 1.5
v 3.5 3 5.5
v 3.5 3 1.5
v 3.5 3 -2.5
v 3.5 3 -4.5
v 3.5 5 5.5
v 3.5 5 1.5
v 3.5 7 -2.5
v 3.5 7 -4.5
v 5.5 3 1.5
v 5.5 3 -2.5
v 5.5 5 1.5
v 5.5 7 1.5
v 5.5 7 -2.5
v 7.5 3 3.5
v 7.5 3 1.5
v 7.5 5 3.5
v 7.5 5 1.5
v -3.5 3 8.5
v -3.5 5 8.5
v -1.5 3 8.5
v -1.5 5 8.5
v -5.5 3 5.5
v -5.5 5 5.5
v -3.5 3 5.5
v -3.5 5 5.5
v -0.5 3 5.5
v -0.5 5 5.5
v 3.5 3 5.5
v 3.5 5 5.5
v -7.5 3 4.5
v -7.5 5 4.5
v -5.5 3 4.5
v -5.5 5 4.5
v -1.5 3 4.5
v -1.5 5 4.5
v -0.5 3 4.5
v -0.5 5 4.5
v -2.5 3 3.5
v -2.5 5 3.5
v -1.5 3 3.5
v -1.5 5 3.5
v -1.5 7 3.5
v 0.5 5 3.5
v 0.5 7 3.5
v 5.5 3 3.5
v 5.5 5 3.5
v 7.5 3 3.5
v 7.5 5 3.5
v 1.5 5 1.5
v 1.5 7 1.5
v 3.5 3 1.5
v 3.5 5 1.5
v 5.5 3 1.5
v 5.5 5 1.5
v 5.5 7 1.5
v -5.5 3 -0.5
v -5.5 5 -0.5
v -3.5 3 -0.5
v -3.5 5 -0.5
v -0.5 5 -0.5
v -0.5 7 -0.5
v 0.5 3 -0.5
v 0.5 5 -0.5
v 1.5 3 -0.5
v 1.5 7 -0.5
v -3.5 3 -2.5
v -3.5 5 -2.5
v -1.5 3 -2.5
v -1.5 5 -2.5
v -6.5 3 -3.5
v -6.5 7 -3.5
v -3.5 3 -3.5
v -3.5 5 -3.5
v -2.5 5 -3.5
v -2.5 7 -3.5
v -2.5 3 -5.5
v -2.5 5 -5.5
v -0.5 3 -5.5
v -0.5 5 -5.5
v -3.5 3 6.5
v -3.5 5 6.5
v -1.5 3 6.5
v -1.5 5 6.5
v -5.5 3 3.5
v -5.5 5 3.5
v -3.5 3 3.5
v -3.5 5 3.5
v -7.5 3 2.5
v -7.5 5 2.5
v -5.5 3 2.5
v -5.5 5 2.5
v -2.5 3 1.5
v -2.5 5 1.5
v -1.5 3 1.5
v -1.5 5 1.5
v -1.5 7 1.5
v 0.5 5 1.5
v 0.5 7 1.5
v 5.5 3 1.5
v 5.5 5 1.5
v 7.5 3 1.5
v 7.5 5 1.5
v 0.5 3 0.5
v 0.5 5 0.5
v 1.5 3 0.5
v 1.5 5 0.5
v -1.5 3 -0.5
v -1.5 5 -0.5
v -0.5 3 -0.5
v -0.5 5 -0.5
v -5.5 3 -2.5
v -5.5 5 -2.5
v -3.5 3 -2.5
v -3.5 5 -2.5
v 3.5 3 -2.5
v 3.5 7 -2.5
v 5.5 3 -2.5
v 5.5 7 -2.5
v -2.5 3 -4.5
v -2.5 5 -4.5
v -1.5 3 -4.5
v -1.5 5 -4.5
v -0.5 3 -4.5
v -0.5 7 -4.5
v 3.5 3 -4.5
v 3.5 7 -4.5
v -6.5 3 -7.5
v -6.5 7 -7.5
v -2.5 5 -7.5
v -2.5 7 -7.5
v -0.5 3 -7.5
v -0.5 5 -7.5
v -3.5 3 8.5
v -1.5 3 8.5
v -3.5 3 6.5
v -1.5 3 6.5
v -5.5 3 5.5
v -3.5 3 5.5
v -0.5 3 5.5
v 3.5 3 5.5
v -7.5 3 4.5
v -5.5 3 4.5
v -1.5 3 4.5
v -0.5 3 4.5
v -5.5 3 3.5
v -3.5 3 3.5
v -2.5 3 3.5
v -1.5 3 3.5
v 5.5 3 3.5
v 7.5 3 3.5
v -7.5 3 2.5
v -5.5 3 2.5
v -2.5 3 1.5
v -1.5 3 1.5
v 3.5 3 1.5
v 5.5 3 1.5
v 7.5 3 1.5
v 0.5 3 0.5
v 1.5 3 0.5
v -5.5 3 -0.5
v -3.5 3 -0.5
v -1.5 3 -0.5
v -0.5 3 -0.5
v 0.5 3 -0.5
v 1.5 3 -0.5
v -5.5 3 -2.5
v -3.5 3 -2.5
v -1.5 3 -2.5
v 3.5 3 -2.5
v 5.5 3 -2.5
v -6.5 3 -3.5
v -3.5 3 -3.5
v -2.5 3 -4.5
v -1.5 3 -4.5
v -0.5 3 -4.5
v 3.5 3 -4.5
v -2.5 3 -5.5
v -0.5 3 -5.5
v -6.5 3 -7.5
v -0.5 3 -7.5
v -3.5 5 8.5
v -1.5 5 8.5
v -3.5 5 6.5
v -1.5 5 6.5
v -5.5 5 5.5
v -3.5 5 5.5
v -0.5 5 5.5
v 3.5 5 5.5
v -7.5 5 4.5
v -5.5 5 4.5
v -1.5 5 4.5
v -0.5 5 4.5
v -5.5 5 3.5
v -3.5 5 3.5
v -2.5 5 3.5
v -1.5 5 3.5
v 0.5 5 3.5
v 5.5 5 3.5
v 7.5 5 3.5
v -7.5 5 2.5
v -5.5 5 2.5
v -2.5 5 1.5
v -1.5 5 1.5
v 0.5 5 1.5
v 1.5 5 1.5
v 3.5 5 1.5
v 5.5 5 1.5
v 7.5 5 1.5
v 0.5 5 0.5
v 1.5 5 0.5
v -5.5 5 -0.5
v -3.5 5 -0.5
v -1.5 5 -0.5
v -0.5 5 -0.5
v 0.5 5 -0.5
v -5.5 5 -2.5
v -3.5 5 -2.5
v -1.5 5 -2.5
v -3.5 5 -3.5
v -2.5 5 -3.5
v -2.5 5 -4.5
v -1.5 5 -4.5
v -2.5 5 -5.5
v -0.5 5 -5.5
v -2.5 5 -7.5
v -0.5 5 -7.5
v -1.5 7 3.5
v 0.5 7 3.5
v -1.5 7 1.5
v 0.5 7 1.5
v 1.5 7 1.5
v 5.5 7 1.5
v -0.5 7 -0.5
v 1.5 7 -0.5
v 3.5 7 -2.5
v 5.5 7 -2.5
v -6.5 7 -3.5
v -2.5 7 -3.5
v -0.5 7 -4.5
v 3.5 7 -4.5
v -6.5 7 -7.5
v -2.5 7 -7.5

# faces
f 3/1/1 2/1/1 1/1/1
f 4/1/1 2/1/1 3/1/1
f 7/1/1 6/1/1 5/1/1
f 8/1/1 6/1/1 7/1/1
f 13/1/1 10/1/1 9/1/1
f 14/1/1 10/1/1 13/1/1
f 15/1/1 12/1/1 11/1/1
f 16/1/1 12/1/1 15/1/1
f 21/1/1 18/1/1 17/1/1
f 22/1/1 18/1/1 21/1/1
f 23/1/1 20/1/1 19/1/1
f 24/1/1 20/1/1 23/1/1
f 27/1/1 26/1/1 25/1/1
f 28/1/1 26/1/1 27/1/1
f 33/1/1 30/1/1 29/1/1
f 34/1/1 30/1/1 33/1/1
f 35/1/1 32/1/1 31/1/1
f 36/1/1 32/1/1 35/1/1
f 37/1/1 35/1/1 34/1/1
f 38/1/1 35/1/1 37/1/1
f 43/1/1 40/1/1 39/1/1
f 44/1/1 40/1/1 43/1/1
f 45/1/1 42/1/1 41/1/1
f 46/1/1 42/1/1 45/1/1
f 47/1/1 42/1/1 46/1/1
f 51/1/1 49/1/1 48/1/1
f 52/1/1 51/1/1 50/1/1
f 53/1/1 49/1/1 51/1/1
f 53/1/1 51/1/1 52/1/1
f 56/1/1 55/1/1 54/1/1
f 57/1/1 55/1/1 56/1/1
f 58/1/2 59/1/2 60/1/2
f 60/1/2 59/1/2 61/1/2
f 62/1/2 63/1/2 66/1/2
f 66/1/2 63/1/2 67/1/2
f 64/1/2 65/1/2 68/1/2
f 68/1/2 65/1/2 69/1/2
f 70/1/2 71/1/2 73/1/2
f 73/1/2 71/1/2 74/1/2
f 72/1/2 73/1/2 76/1/2
f 74/1/2 75/1/2 76/1/2
f 73/1/2 74/1/2 76/1/2
f 76/1/2 75/1/2 77/1/2
f 78/1/2 79/1/2 82/1/2
f 82/1/2 79/1/2 83/1/2
f 80/1/2 81/1/2 84/1/2
f 84/1/2 81/1/2 85/1/2
f 86/1/2 87/1/2 88/1/2
f 88/1/2 87/1/2 89/1/2
f 90/1/2 91/1/2 94/1/2
f 94/1/2 91/1/2 95/1/2
f 92/1/2 93/1/2 96/1/2
f 96/1/2 93/1/2 97/1/2
f 98/1/2 99/1/2 102/1/2
f 102/1/2 99/1/2 103/1/2
f 100/1/2 101/1/2 104/1/2
f 104/1/2 101/1/2 105/1/2
f 106/1/2 107/1/2 108/1/2
f 108/1/2 107/1/2 109/1/2
f 109/1/2 107/1/2 110/1/2
f 111/1/2 112/1/2 113/1/2
f 113/1/2 112/1/2 114/1/2
f 117/1/3 116/1/3 115/1/3
f 118/1/3 116/1/3 117/1/3
f 121/1/3 120/1/3 119/1/3
f 122/1/3 120/1/3 121/1/3
f 125/1/3 124/1/3 123/1/3
f 126/1/3 124/1/3 125/1/3
f 129/1/3 128/1/3 127/1/3
f 130/1/3 128/1/3 129/1/3
f 133/1/3 132/1/3 131/1/3
f 134/1/3 132/1/3 133/1/3
f 137/1/3 136/1/3 135/1/3
f 138/1/3 136/1/3 137/1/3
f 140/1/3 139/1/3 138/1/3
f 141/1/3 139/1/3 140/1/3
f 144/1/3 143/1/3 142/1/3
f 145/1/3 143/1/3 144/1/3
f 149/1/3 147/1/3 146/1/3
f 150/1/3 149/1/3 148/1/3
f 151/1/3 147/1/3 149/1/3
f 151/1/3 149/1/3 150/1/3
f 152/1/3 147/1/3 151/1/3
f 155/1/3 154/1/3 153/1/3
f 156/1/3 154/1/3 155/1/3
f 160/1/3 158/1/3 157/1/3
f 161/1/3 160/1/3 159/1/3
f 162/1/3 158/1/3 160/1/3
f 162/1/3 160/1/3 161/1/3
f 165/1/3 164/1/3 163/1/3
f 166/1/3 164/1/3 165/1/3
f 169/1/3 168/1/3 167/1/3
f 170/1/3 168/1/3 169/1/3
f 171/1/3 168/1/3 170/1/3
f 172/1/3 168/1/3 171/1/3
f 175/1/3 174/1/3 173/1/3
f 176/1/3 174/1/3 175/1/3
f 177/1/4 178/1/4 179/1/4
f 179/1/4 178/1/4 180/1/4
f 181/1/4 182/1/4 183/1/4
f 183/1/4 182/1/4 184/1/4
f 185/1/4 186/1/4 187/1/4
f 187/1/4 186/1/4 188/1/4
f 189/1/4 190/1/4 191/1/4
f 191/1/4 190/1/4 192/1/4
f 192/1/4 193/1/4 194/1/4
f 194/1/4 193/1/4 195/1/4
f 196/1/4 197/1/4 198/1/4
f 198/1/4 197/1/4 199/1/4
f 200/1/4 201/1/4 202/1/4
f 202/1/4 201/1/4 203/1/4
f 204/1/4 205/1/4 206/1/4
f 206/1/4 205/1/4 207/1/4
f 208/1/4 209/1/4 210/1/4
f 210/1/4 209/1/4 211/1/4
f 212/1/4 213/1/4 214/1/4
f 214/1/4 213/1/4 215/1/4
f 216/1/4 217/1/4 218/1/4
f 218/1/4 217/1/4 219/1/4
f 220/1/4 221/1/4 222/1/4
f 222/1/4 221/1/4 223/1/4
f 224/1/4 225/1/4 226/1/4
f 226/1/4 225/1/4 227/1/4
f 224/1/4 226/1/4 228/1/4
f 228/1/4 226/1/4 229/1/4
f 232/1/5 231/1/5 230/1/5
f 233/1/5 231/1/5 232/1/5
f 239/1/5 235/1/5 234/1/5
f 241/1/5 237/1/5 236/1/5
f 242/1/5 239/1/5 238/1/5
f 242/1/5 235/1/5 239/1/5
f 243/1/5 235/1/5 242/1/5
f 245/1/5 241/1/5 240/1/5
f 248/1/5 242/1/5 238/1/5
f 249/1/5 242/1/5 248/1/5
f 250/1/5 245/1/5 244/1/5
f 251/1/5 241/1/5 245/1/5
f 251/1/5 245/1/5 250/1/5
f 252/1/5 237/1/5 241/1/5
f 252/1/5 241/1/5 251/1/5
f 253/1/5 247/1/5 246/1/5
f 254/1/5 247/1/5 253/1/5
f 255/1/5 252/1/5 251/1/5
f 255/1/5 253/1/5 252/1/5
f 256/1/5 253/1/5 255/1/5
f 259/1/5 255/1/5 251/1/5
f 260/1/5 255/1/5 259/1/5
f 261/1/5 255/1/5 260/1/5
f 262/1/5 253/1/5 256/1/5
f 263/1/5 258/1/5 257/1/5
f 264/1/5 258/1/5 263/1/5
f 266/1/5 262/1/5 261/1/5
f 266/1/5 261/1/5 260/1/5
f 266/1/5 253/1/5 262/1/5
f 267/1/5 253/1/5 266/1/5
f 269/1/5 265/1/5 264/1/5
f 270/1/5 265/1/5 269/1/5
f 270/1/5 269/1/5 268/1/5
f 271/1/5 265/1/5 270/1/5
f 272/1/5 266/1/5 260/1/5
f 273/1/5 266/1/5 272/1/5
f 274/1/5 270/1/5 268/1/5
f 276/1/5 274/1/5 268/1/5
f 276/1/5 275/1/5 274/1/5
f 277/1/5 275/1/5 276/1/5
f 278/1/6 279/1/6 280/1/6
f 280/1/6 279/1/6 281/1/6
f 282/1/6 283/1/6 287/1/6
f 284/1/6 285/1/6 289/1/6
f 286/1/6 287/1/6 290/1/6
f 287/1/6 283/1/6 290/1/6
f 290/1/6 283/1/6 291/1/6
f 288/1/6 289/1/6 293/1/6
f 289/1/6 285/1/6 294/1/6
f 293/1/6 289/1/6 294/1/6
f 286/1/6 290/1/6 297/1/6
f 297/1/6 290/1/6 298/1/6
f 292/1/6 293/1/6 299/1/6
f 299/1/6 293/1/6 300/1/6
f 294/1/6 285/1/6 301/1/6
f 301/1/6 285/1/6 302/1/6
f 302/1/6 285/1/6 303/1/6
f 295/1/6 296/1/6 304/1/6
f 304/1/6 296/1/6 305/1/6
f 300/1/6 301/1/6 306/1/6
f 301/1/6 302/1/6 306/1/6
f 306/1/6 302/1/6 307/1/6
f 300/1/6 306/1/6 310/1/6
f 310/1/6 306/1/6 311/1/6
f 311/1/6 306/1/6 312/1/6
f 308/1/6 309/1/6 313/1/6
f 313/1/6 309/1/6 314/1/6
f 314/1/6 315/1/6 316/1/6
f 316/1/6 315/1/6 317/1/6
f 317/1/6 315/1/6 318/1/6
f 318/1/6 315/1/6 319/1/6
f 320/1/6 321/1/6 322/1/6
f 322/1/6 321/1/6 323/1/6
f 324/1/6 325/1/6 326/1/6
f 326/1/6 325/1/6 327/1/6
f 328/1/6 329/1/6 331/1/6
f 331/1/6 329/1/6 332/1/6
f 330/1/6 331/1/6 332/1/6
f 332/1/6 329/1/6 333/1/6
f 330/1/6 332/1/6 336/1/6
f 336/1/6 332/1/6 337/1/6
f 334/1/6 335/1/6 338/1/6
f 338/1/6 335/1/6 339/1/6
